<svg width="51" height="50" viewBox="0 0 51 50" fill="none" xmlns="http://www.w3.org/2000/svg">
<path d="M0 41.8032H40.9832V31.967H0V41.8032ZM36.0661 35.2463C36.9676 35.2463 37.7053 35.984 37.7053 36.8855C37.7053 37.7871 36.9676 38.5248 36.0661 38.5248C35.1646 38.5248 34.4268 37.7871 34.4268 36.8855C34.4264 35.9836 35.1642 35.2463 36.0661 35.2463ZM29.5087 35.2463C30.4102 35.2463 31.148 35.984 31.148 36.8855C31.148 37.7871 30.4102 38.5248 29.5087 38.5248C28.6072 38.5248 27.8694 37.7871 27.8694 36.8855C27.869 35.9836 28.6068 35.2463 29.5087 35.2463ZM22.9513 35.2463C23.8528 35.2463 24.5906 35.984 24.5906 36.8855C24.5906 37.7871 23.8529 38.5248 22.9513 38.5248C22.0498 38.5248 21.3121 37.7871 21.3121 36.8855C21.3117 35.9836 22.0494 35.2463 22.9513 35.2463ZM12.2959 35.2463C12.2959 34.7953 12.6646 34.4266 13.1155 34.4266C13.5665 34.4266 13.9352 34.7953 13.9352 35.2463V38.5248C13.9352 38.9757 13.5665 39.3444 13.1155 39.3444C12.6646 39.3444 12.2959 38.9757 12.2959 38.5248V35.2463ZM9.01739 35.2463C9.01739 34.7953 9.38606 34.4266 9.83701 34.4266C10.288 34.4266 10.6566 34.7953 10.6566 35.2463V38.5248C10.6566 38.9757 10.288 39.3444 9.83701 39.3444C9.38606 39.3444 9.01739 38.9757 9.01739 38.5248V35.2463ZM5.73855 35.2463C5.73855 34.7953 6.10723 34.4266 6.55818 34.4266C7.00913 34.4266 7.37781 34.7953 7.37781 35.2463V38.5248C7.37781 38.9757 7.00913 39.3444 6.55818 39.3444C6.10723 39.3444 5.73855 38.9757 5.73855 38.5248V35.2463ZM2.46002 35.2463C2.46002 34.7953 2.82869 34.4266 3.27964 34.4266C3.73059 34.4266 4.09927 34.7953 4.09927 35.2463V38.5248C4.09927 38.9757 3.73059 39.3444 3.27964 39.3444C2.82869 39.3444 2.46002 38.9757 2.46002 38.5248V35.2463Z" fill="#FACD35"/>
<path d="M21.3117 43.4424H19.6725V45.0817H18.0332V49.9998H22.9513V45.0817H21.3116L21.3117 43.4424Z" fill="#FACD35"/>
<path d="M32.7865 46.7214H24.5898V48.3607H32.7865C33.2374 48.3607 33.6061 47.992 33.6061 47.5411C33.6061 47.0905 33.2374 46.7214 32.7865 46.7214Z" fill="#FACD35"/>
<path d="M7.37695 47.5403C7.37695 47.9913 7.74563 48.36 8.19658 48.36H16.3932V46.7207H8.19658C7.74601 46.7207 7.37695 47.0898 7.37695 47.5403Z" fill="#FACD35"/>
<path d="M30.3279 8.50009C30.3936 13.3363 31.6475 21.0905 38.5245 24.2784C45.4672 21.0652 46.6967 13.3274 46.7378 8.50009C43.1642 7.97556 40.377 6.54917 38.5245 5.30347C36.6804 6.54946 33.8933 7.96722 30.3279 8.50009ZM43.1144 10.1477C43.4423 10.459 43.4506 10.9839 43.1306 11.3035C37.4178 17.2134 37.3276 17.2134 36.885 17.2134C36.4914 17.2134 36.3439 17.2134 33.8277 14.4922C33.5163 14.156 33.5409 13.6398 33.8688 13.3364C34.1967 13.025 34.7213 13.0496 35.0247 13.3775C35.6639 14.0662 36.41 14.8447 36.8771 15.3118C37.8198 14.402 40.0001 12.1888 41.9508 10.1726C42.2704 9.83634 42.7866 9.82804 43.1146 10.1477L43.1144 10.1477Z" fill="#FACD35"/>
<path d="M50.6224 4.58192C42.9179 5.04116 38.5247 0 38.5247 0C38.5247 0 34.1394 5.04117 26.426 4.58192C26.426 4.58192 23.7211 23.5984 38.5247 28.6884C53.336 23.5986 50.6224 4.58192 50.6224 4.58192ZM38.8522 25.9265C38.7458 25.9677 38.639 25.9922 38.5243 25.9922C38.4096 25.9922 38.3031 25.9677 38.1964 25.9265C29.811 22.3039 28.639 12.9922 28.688 7.77081C28.688 7.3527 29.0077 7.00855 29.4175 6.96741C33.319 6.541 36.2616 4.92627 38.0484 3.64782C38.3352 3.44291 38.7205 3.44291 39.0073 3.64782C40.7941 4.92666 43.745 6.54139 47.6549 6.96741C48.0647 7.00855 48.376 7.3527 48.3843 7.77081C48.4504 12.984 47.3194 22.2788 38.8522 25.9265Z" fill="#FACD35"/>
<path d="M24.6805 5.73779H0.000152588V15.574H25.4833C24.5082 11.4842 24.5572 7.6974 24.6803 5.73779H24.6805ZM4.09905 12.2952C4.09905 12.7461 3.73037 13.1148 3.27943 13.1148C2.82848 13.1148 2.4598 12.7461 2.4598 12.2952V9.01662C2.4598 8.56568 2.82848 8.197 3.27943 8.197C3.73037 8.197 4.09905 8.56568 4.09905 9.01662V12.2952ZM7.37759 12.2952C7.37759 12.7461 7.00891 13.1148 6.55797 13.1148C6.10702 13.1148 5.73834 12.7461 5.73834 12.2952V9.01662C5.73834 8.56568 6.10702 8.197 6.55797 8.197C7.00891 8.197 7.37759 8.56568 7.37759 9.01662V12.2952ZM10.6564 12.2952C10.6564 12.7461 10.2877 13.1148 9.8368 13.1148C9.38585 13.1148 9.01717 12.7461 9.01717 12.2952V9.01662C9.01717 8.56568 9.38585 8.197 9.8368 8.197C10.2877 8.197 10.6564 8.56568 10.6564 9.01662V12.2952ZM13.935 12.2952C13.935 12.7461 13.5663 13.1148 13.1153 13.1148C12.6644 13.1148 12.2957 12.7461 12.2957 12.2952V9.01662C12.2957 8.56568 12.6644 8.197 13.1153 8.197C13.5663 8.197 13.935 8.56568 13.935 9.01662V12.2952ZM22.9516 12.2952C22.0501 12.2952 21.3123 11.5574 21.3123 10.6559C21.3123 9.75436 22.05 9.01662 22.9516 9.01662C23.8531 9.01662 24.5908 9.75436 24.5908 10.6559C24.5908 11.5574 23.8614 12.2952 22.9516 12.2952Z" fill="#FACD35"/>
<path d="M26.4831 18.8521H0.000152588V28.6882H34.5901C30.3769 26.2705 27.9098 22.6064 26.4833 18.8521H26.4831ZM4.09809 25.4094C4.09809 25.8604 3.72941 26.229 3.27846 26.229C2.82751 26.229 2.45884 25.8604 2.45884 25.4094V22.1309C2.45884 21.6799 2.82751 21.3113 3.27846 21.3113C3.72941 21.3113 4.09809 21.6799 4.09809 22.1309V25.4094ZM7.37663 25.4094C7.37663 25.8604 7.00795 26.229 6.557 26.229C6.10605 26.229 5.73738 25.8604 5.73738 25.4094V22.1309C5.73738 21.6799 6.10605 21.3113 6.557 21.3113C7.00795 21.3113 7.37663 21.6799 7.37663 22.1309V25.4094ZM10.6555 25.4094C10.6555 25.8604 10.2868 26.229 9.83583 26.229C9.38488 26.229 9.0162 25.8604 9.0162 25.4094V22.1309C9.0162 21.6799 9.38488 21.3113 9.83583 21.3113C10.2868 21.3113 10.6555 21.6799 10.6555 22.1309V25.4094ZM13.934 25.4094C13.934 25.8604 13.5653 26.229 13.1144 26.229C12.6634 26.229 12.2947 25.8604 12.2947 25.4094V22.1309C12.2947 21.6799 12.6634 21.3113 13.1144 21.3113C13.5653 21.3113 13.934 21.6799 13.934 22.1309V25.4094ZM22.9506 25.4094C22.0491 25.4094 21.3113 24.6717 21.3113 23.7701C21.3113 22.8686 22.0491 22.1309 22.9506 22.1309C23.8521 22.1309 24.5899 22.8686 24.5899 23.7701C24.5899 24.6717 23.8604 25.4094 22.9506 25.4094Z" fill="#FACD35"/>
</svg>
