<svg width="43" height="50" viewBox="0 0 43 50" fill="none" xmlns="http://www.w3.org/2000/svg">
<path d="M37.577 22.0495V15.7065C37.5787 11.3406 35.6988 7.38059 32.7136 4.55959C29.7298 1.73171 25.6224 0 21.1175 0C16.6125 0 12.5052 1.73171 9.52135 4.55959C6.53619 7.38059 4.6563 11.341 4.65796 15.7065L4.65753 22.0495H0V43.7888C0 47.2051 2.79494 50 6.21122 50H36.0251C39.4414 50 42.2363 47.2051 42.2363 43.7888V22.0495H37.577ZM22.6701 36.5261V40.6841H19.5644V36.5261C18.6403 35.9884 18.0116 34.9976 18.0116 33.8507C18.0116 32.135 19.4015 30.7451 21.1173 30.7451C22.833 30.7451 24.2229 32.135 24.2229 33.8507C24.2229 34.9976 23.5942 35.9876 22.6701 36.5261ZM33.229 22.0495H9.00526L9.00483 15.7065C9.00656 12.5984 10.3245 9.7921 12.5103 7.715C14.6974 5.64489 17.7319 4.3473 21.1166 4.3473C24.5013 4.3473 27.5367 5.64489 29.7229 7.715C31.9087 9.7921 33.2267 12.5982 33.2284 15.7065L33.229 22.0495Z" fill="#FACD35"/>
</svg>
