<svg width="38" height="50" viewBox="0 0 38 50" fill="none" xmlns="http://www.w3.org/2000/svg">
<path d="M23.3245 16.7256H37.4184L20.7988 0V14.0939C20.7988 15.4938 21.9236 16.725 23.324 16.725L23.3245 16.7256Z" fill="#4D3F12"/>
<path d="M9.71919 13.4501C10.9569 13.4501 12.1192 12.9688 12.9942 12.0938C13.8692 11.2189 14.3505 10.0561 14.3505 8.8188C14.3505 7.58107 13.8692 6.41877 12.9942 5.54377C12.1193 4.66876 10.9565 4.1875 9.71919 4.1875C8.48145 4.1875 7.31917 4.66881 6.44416 5.54377C5.56915 6.41872 5.08789 7.58151 5.08789 8.8188C5.08789 10.0565 5.5692 11.2188 6.44416 12.0938C7.31911 12.9688 8.4819 13.4501 9.71919 13.4501ZM9.71919 4.61864C12.0381 4.61864 13.9194 6.4998 13.9194 8.8188C13.9194 11.1378 12.0382 13.019 9.71919 13.019C7.40019 13.019 5.51903 11.1378 5.51903 8.8188C5.51903 6.4998 7.40064 4.61864 9.71919 4.61864Z" fill="#4D3F12"/>
<path d="M23.3316 17.8875C21.2316 17.8875 19.469 16.1877 19.469 14.0876V0.0874023H2.53128C1.11876 0.0874023 0 1.17471 0 2.58721V47.369C0 48.7815 1.11865 50 2.53128 50H34.8374C36.25 50 37.4376 48.7749 37.4376 47.369L37.4371 17.8876L23.3316 17.8875ZM3.78118 8.24341L4.225 7.74945C4.41247 7.54323 4.48746 7.26204 4.42511 6.99305L4.28778 6.34302C4.19405 5.91184 4.44385 5.48067 4.86282 5.34945L5.4941 5.14323C5.75656 5.0556 5.96277 4.85593 6.0443 4.59303L6.25052 3.96175C6.38785 3.54279 6.81292 3.29297 7.24409 3.38671L7.89412 3.52405C8.16267 3.58029 8.44431 3.5053 8.65052 3.32393L9.14448 2.88011C9.46928 2.58627 9.96933 2.58627 10.2946 2.88011L10.7886 3.32393C10.9948 3.5114 11.276 3.58639 11.545 3.52405L12.195 3.38671C12.6262 3.29298 13.0573 3.54279 13.1886 3.96175L13.3948 4.59303C13.4824 4.85549 13.6821 5.0617 13.945 5.14323L14.5763 5.34945C14.9952 5.48678 15.245 5.91185 15.1513 6.34302L15.014 6.99305C14.9577 7.2616 15.0327 7.54324 15.2141 7.74945L15.6579 8.24341C15.9517 8.56821 15.9517 9.06826 15.6579 9.39353L15.2141 9.88749C15.0266 10.0937 14.9516 10.3749 15.014 10.6439L15.1513 11.2939C15.245 11.7251 14.9952 12.1563 14.5763 12.2875L13.945 12.4937C13.6825 12.5813 13.4763 12.781 13.3948 13.0439L13.1886 13.6752C13.0512 14.0942 12.6262 14.344 12.195 14.2502L11.545 14.1129C11.2764 14.0567 10.9948 14.1316 10.7886 14.313L10.2946 14.7568C9.9698 15.0507 9.46975 15.0507 9.14448 14.7568L8.65052 14.313C8.4443 14.1255 8.1631 14.0505 7.89412 14.1129L7.24409 14.2502C6.81291 14.344 6.38173 14.0942 6.25052 13.6752L6.0443 13.0439C5.95667 12.7814 5.75699 12.5752 5.4941 12.4937L4.86282 12.2875C4.44385 12.1502 4.19404 11.7251 4.28778 11.2939L4.42511 10.6439C4.48136 10.3753 4.40637 10.0937 4.225 9.88749L3.78118 9.39353C3.48123 9.06873 3.48123 8.56868 3.78118 8.24341ZM15.8248 19.8875L13.7187 18.8189L12.7874 20.9879L10.7 15.2566C10.7061 15.2505 10.7127 15.244 10.7249 15.2379L11.2188 14.7936C11.2563 14.7561 11.3065 14.7374 11.3627 14.7374C11.3754 14.7374 11.3941 14.7374 11.4063 14.7435L12.0563 14.8874C12.1627 14.9122 12.2687 14.9249 12.375 14.9249C12.9501 14.9249 13.4689 14.5935 13.7187 14.0874L15.8248 19.8875ZM5.72473 14.0873C5.97454 14.5935 6.49334 14.9187 7.06838 14.9187C7.17476 14.9187 7.28069 14.9061 7.38708 14.8873L8.03711 14.75C8.04975 14.7439 8.0685 14.7439 8.0807 14.7439C8.13084 14.7439 8.18054 14.7626 8.22458 14.8001L8.71854 15.244C8.72464 15.2501 8.73118 15.2566 8.74339 15.2627L6.65597 20.994L5.72474 18.825L3.61858 19.8936L5.72473 14.0873ZM32.1938 44.8444H5.1745C4.59946 44.8444 4.13689 44.3382 4.13689 43.7632C4.13689 43.1881 4.59945 42.682 5.1745 42.682H32.1994C32.7744 42.682 33.237 43.1881 33.237 43.7632C33.237 44.3382 32.7679 44.8444 32.1928 44.8444H32.1938ZM32.1938 38.5193H5.1745C4.59946 38.5193 4.13689 38.0942 4.13689 37.5192C4.13689 36.9442 4.59945 36.5191 5.1745 36.5191H32.1994C32.7744 36.5191 33.237 36.9442 33.237 37.5192C33.237 38.0942 32.7679 38.5193 32.1928 38.5193H32.1938ZM32.1938 32.363H5.1745C4.59946 32.363 4.13689 31.8568 4.13689 31.2818C4.13689 30.7067 4.59945 30.2006 5.1745 30.2006H32.1994C32.7744 30.2006 33.237 30.7067 33.237 31.2818C33.237 31.8568 32.7679 32.363 32.1928 32.363H32.1938ZM32.1938 26.0441H5.1745C4.59946 26.0441 4.13689 25.619 4.13689 25.0439C4.13689 24.4689 4.59945 24.0438 5.1745 24.0438H32.1994C32.7744 24.0438 33.237 24.4689 33.237 25.0439C33.237 25.619 32.7679 26.0441 32.1928 26.0441H32.1938Z" fill="#FACD35"/>
<path d="M7.97516 11.5001L9.71904 10.5876L11.4629 11.5001L11.1316 9.56264L12.5441 8.18763L10.594 7.90033L9.71897 6.1377L8.85008 7.90033L6.90039 8.18763L8.31291 9.56264L7.97516 11.5001Z" fill="#4D3F12"/>
</svg>
