<svg width="500" height="316" viewBox="0 0 500 316" fill="none" xmlns="http://www.w3.org/2000/svg">
<path d="M499.5 20V296C499.5 300.728 499.499 304.224 499.138 306.906C498.78 309.574 498.074 311.361 496.718 312.718C495.361 314.074 493.574 314.78 490.906 315.138C488.224 315.499 484.728 315.5 480 315.5H250H20C15.2718 315.5 11.776 315.499 9.0939 315.138C6.42621 314.78 4.63857 314.074 3.28249 312.718C1.9264 311.361 1.22032 309.574 0.861658 306.906C0.501062 304.224 0.5 300.728 0.5 296V20C0.5 15.2718 0.501062 11.776 0.861658 9.09391C1.22032 6.42621 1.9264 4.63857 3.28249 3.28249C4.63857 1.9264 6.42621 1.22032 9.09391 0.861658C11.776 0.501062 15.2718 0.5 20 0.5H250H479.98C484.715 0.5 488.216 0.501059 490.901 0.861669C493.572 1.22036 495.362 1.92651 496.718 3.28249C498.074 4.63857 498.78 6.42621 499.138 9.09391C499.499 11.776 499.5 15.2718 499.5 20Z" stroke="url(#paint0_radial_1_323)"/>
<defs>
<radialGradient id="paint0_radial_1_323" cx="0" cy="0" r="1" gradientUnits="userSpaceOnUse" gradientTransform="translate(499.999 0.000434329) rotate(111.895) scale(340.565 10540.9)">
<stop stop-color="#FACD35" stop-opacity="0.7"/>
<stop offset="0.46848" stop-color="#FACD35" stop-opacity="0.13"/>
</radialGradient>
</defs>
</svg>
