<svg width="1920" height="1301" viewBox="0 0 1920 1301" fill="none" xmlns="http://www.w3.org/2000/svg">
<g opacity="0.15">
<g opacity="0.2">
<path d="M1499.22 719.741C1428.86 706.711 1352.66 698.166 1288.67 672.894C1245.6 655.864 1206.28 630.773 1180.64 601.138C1147.86 563.26 1141.67 516.352 1118.22 475.444C1089.79 425.748 1039.75 403.203 962.761 406.415C946.195 407.081 929.717 408.294 913.151 407.748C841.396 405.385 795.971 360.355 721.339 363.204C699.106 364.052 677.309 368.052 655.076 369.082C609.652 371.143 566.581 360.476 527.957 344.598C507.642 336.295 488.636 326.538 470.413 316.235C459.864 310.356 383.575 271.872 371.281 271.266C535.891 279.872 768.943 236.964 933.553 245.57C1101.65 254.418 1249.08 327.447 1415.26 307.75C1460.78 302.357 1506.46 294.842 1552.58 296.66C1598.71 298.478 1646.75 311.508 1671.59 338.598C1698.8 368.294 1692.43 406.475 1687.55 441.505C1680.75 491.14 1679.09 541.139 1682.67 590.956C1684.15 610.834 1684.32 630.107 1678.13 649.561C1671.51 670.166 1687.9 669.257 1693.48 688.469C1696.09 697.378 1688.25 706.044 1686.42 715.074C1684.85 722.589 1687.64 730.225 1687.38 737.862C1686.42 769.861 1630.18 753.437 1606.29 745.619C1571.94 734.347 1535.84 726.529 1499.22 719.741Z" stroke="url(#paint0_linear_43_3)" stroke-width="0.876228" stroke-linejoin="round"/>
</g>
<g opacity="0.2">
<path d="M229.443 475.203C299.804 488.233 376.005 496.778 440.001 522.111C483.072 539.08 522.393 564.171 548.026 593.806C580.721 631.684 586.999 678.592 610.452 719.5C638.875 769.196 688.921 791.802 765.908 788.529C782.386 787.862 798.864 786.65 815.43 787.196C887.272 789.559 932.697 834.649 1007.33 831.74C1029.56 830.892 1051.36 826.892 1073.59 825.861C1119.02 823.801 1162.09 834.528 1200.71 850.346C1221.03 858.649 1240.03 868.467 1258.25 878.709C1268.8 884.648 1345.09 923.071 1357.39 923.738C1192.78 915.072 959.725 958.04 795.115 949.374C627.018 940.525 479.584 867.497 313.405 887.193C267.893 892.587 222.207 900.102 176.085 898.284C129.963 896.466 81.9223 883.436 57.0738 856.346C29.7842 826.71 36.236 788.529 41.1185 753.5C47.9192 703.804 49.5757 653.805 46.001 603.988C44.5188 584.11 44.3445 564.837 50.5348 545.383C57.161 524.838 40.7698 525.687 35.1026 506.536C32.5742 497.566 40.421 488.9 42.252 479.93C43.8214 472.355 41.0314 464.718 41.2929 457.082C42.252 425.083 98.4879 441.507 122.377 449.325C156.729 460.658 192.825 468.415 229.443 475.203Z" stroke="url(#paint1_linear_43_3)" stroke-width="0.876228" stroke-linejoin="round"/>
</g>
<path d="M45.7305 638.956C45.7305 638.956 184.882 632.289 234.578 540.897C284.275 449.566 409.128 407.809 500.413 419.203C591.785 430.597 784.905 350.053 731.111 216.299" stroke="url(#paint2_linear_43_3)" stroke-width="0.876228" stroke-linejoin="round"/>
<path d="M720.991 217.147C772.693 345.75 592.476 434.657 496.309 425.142C400.054 415.567 282.787 455.384 231.957 545.624C181.126 635.865 43.9805 641.319 43.9805 641.319" stroke="url(#paint3_linear_43_3)" stroke-width="0.876228" stroke-linejoin="round"/>
<path d="M710.97 218.056C760.492 341.508 593.18 438.718 492.129 431.021C391.079 423.324 281.397 461.202 229.346 550.352C177.383 639.44 42.2422 643.683 42.2422 643.683" stroke="url(#paint4_linear_43_3)" stroke-width="0.876228" stroke-linejoin="round"/>
<path d="M700.852 218.904C748.37 337.204 593.961 442.777 488.028 436.959C382.095 431.141 279.912 467.08 226.814 555.078C173.63 643.076 40.582 646.045 40.582 646.045" stroke="url(#paint5_linear_43_3)" stroke-width="0.876228" stroke-linejoin="round"/>
<path d="M690.74 219.753C736.165 332.902 594.66 446.839 483.844 442.899C373.029 438.899 278.431 472.899 224.2 559.745C169.97 646.652 38.8398 648.41 38.8398 648.41" stroke="url(#paint6_linear_43_3)" stroke-width="0.876228" stroke-linejoin="round"/>
<path d="M680.624 220.6C724.043 328.598 595.442 450.898 479.744 448.777C364.047 446.656 277.034 478.776 221.582 564.471C166.218 650.227 37.0938 650.772 37.0938 650.772" stroke="url(#paint7_linear_43_3)" stroke-width="0.876228" stroke-linejoin="round"/>
<path d="M670.512 221.449C711.839 324.295 596.141 454.958 475.561 454.716C355.068 454.473 275.553 484.594 219.055 569.198C162.471 653.802 35.3516 653.135 35.3516 653.135" stroke="url(#paint8_linear_43_3)" stroke-width="0.876228" stroke-linejoin="round"/>
<path d="M660.395 222.299C699.629 319.993 596.835 459.021 471.459 460.596C345.997 462.233 274.154 490.414 216.436 573.927C158.718 657.38 33.6914 655.501 33.6914 655.501" stroke="url(#paint9_linear_43_3)" stroke-width="0.876228" stroke-linejoin="round"/>
<path d="M650.283 223.145C687.512 315.749 597.621 463.079 467.276 466.533C337.018 469.988 272.674 496.29 213.822 578.652C155.058 661.014 31.9492 657.862 31.9492 657.862" stroke="url(#paint10_linear_43_3)" stroke-width="0.876228" stroke-linejoin="round"/>
<path d="M640.174 223.995C675.311 311.448 598.324 467.141 463.184 472.474C328.043 477.747 271.284 502.11 211.299 583.32C151.314 664.591 30.2109 660.288 30.2109 660.288" stroke="url(#paint11_linear_43_3)" stroke-width="0.876228" stroke-linejoin="round"/>
<path d="M630.054 224.844C663.098 307.145 599.015 471.202 459.08 478.353C319.057 485.565 269.796 507.928 208.677 588.047C147.559 668.167 28.4609 662.652 28.4609 662.652" stroke="url(#paint12_linear_43_3)" stroke-width="0.876228" stroke-linejoin="round"/>
<path d="M619.945 225.692C650.983 302.842 599.804 475.262 454.899 484.292C309.993 493.322 268.318 513.806 206.066 592.774C143.814 671.742 26.8086 665.015 26.8086 665.015" stroke="url(#paint13_linear_43_3)" stroke-width="0.876228" stroke-linejoin="round"/>
<path d="M609.829 226.541C638.775 298.54 600.499 479.323 450.799 490.232C301.011 501.08 266.92 519.625 203.535 597.502C140.15 675.319 25.0625 667.379 25.0625 667.379" stroke="url(#paint14_linear_43_3)" stroke-width="0.876228" stroke-linejoin="round"/>
<path d="M599.716 227.389C626.657 294.297 601.286 483.384 446.615 496.111C292.032 508.898 265.44 525.504 200.921 602.229C136.402 678.955 23.3203 669.743 23.3203 669.743" stroke="url(#paint15_linear_43_3)" stroke-width="0.876228" stroke-linejoin="round"/>
<path d="M589.603 228.238C614.451 289.994 601.984 487.444 442.518 502.05C282.965 516.655 264.045 531.322 198.306 606.896C132.654 682.53 21.6641 672.106 21.6641 672.106" stroke="url(#paint16_linear_43_3)" stroke-width="0.876228" stroke-linejoin="round"/>
<path d="M579.578 229.086C602.247 285.691 602.683 491.504 438.334 507.989C273.986 524.413 262.564 537.14 195.779 611.623C128.906 686.106 19.9219 674.47 19.9219 674.47" stroke="url(#paint17_linear_43_3)" stroke-width="0.876228" stroke-linejoin="round"/>
<path d="M569.458 229.934C590.121 281.388 603.461 495.565 434.23 513.867C264.999 532.23 261.076 543.018 193.157 616.35C125.151 689.681 18.1719 676.833 18.1719 676.833" stroke="url(#paint18_linear_43_3)" stroke-width="0.876228" stroke-linejoin="round"/>
<path d="M559.35 230.843C577.921 277.084 604.164 499.624 430.051 519.806C255.937 539.987 259.687 548.835 190.547 621.076C121.494 693.256 16.4336 679.196 16.4336 679.196" stroke="url(#paint19_linear_43_3)" stroke-width="0.876228" stroke-linejoin="round"/>
<path d="M549.228 231.692C565.707 272.843 604.854 503.746 425.945 525.746C246.95 547.745 258.197 554.715 188.011 625.804C117.738 696.833 14.7695 681.56 14.7695 681.56" stroke="url(#paint20_linear_43_3)" stroke-width="0.876228" stroke-linejoin="round"/>
<path d="M539.124 232.541C553.597 268.54 605.648 507.808 421.77 531.625C237.979 555.503 256.811 560.534 185.405 630.471C113.998 700.47 13.0352 683.925 13.0352 683.925" stroke="url(#paint21_linear_43_3)" stroke-width="0.876228" stroke-linejoin="round"/>
<path d="M529.008 233.39C541.389 264.237 606.343 511.868 417.67 537.564C228.996 563.321 255.327 566.352 182.787 635.198C110.247 704.045 11.2891 686.288 11.2891 686.288" stroke="url(#paint22_linear_43_3)" stroke-width="0.876228" stroke-linejoin="round"/>
<path d="M518.892 234.238C529.267 259.934 607.038 515.928 413.482 543.503C219.926 571.079 253.929 572.23 180.256 639.925C106.583 707.621 9.54297 688.652 9.54297 688.652" stroke="url(#paint23_linear_43_3)" stroke-width="0.876228" stroke-linejoin="round"/>
<path d="M508.775 235.086C517.057 255.631 607.819 519.989 409.381 549.382C210.942 578.836 252.444 578.048 177.637 644.652C102.83 711.196 7.88281 691.015 7.88281 691.015" stroke="url(#paint24_linear_43_3)" stroke-width="0.876228" stroke-linejoin="round"/>
<path d="M498.662 235.934C504.853 251.389 608.519 524.049 405.197 555.321C201.964 586.654 250.963 583.926 175.023 649.379C99.0824 714.772 6.14062 693.378 6.14062 693.378" stroke="url(#paint25_linear_43_3)" stroke-width="0.876228" stroke-linejoin="round"/>
<path d="M488.554 236.783C492.739 247.086 609.309 528.109 401.105 561.26C192.902 594.411 249.573 589.744 172.5 654.046C95.3388 718.408 4.40234 695.742 4.40234 695.742" stroke="url(#paint26_linear_43_3)" stroke-width="0.876228" stroke-linejoin="round"/>
<path d="M478.441 237.631C480.533 242.782 610.006 532.17 397.008 567.139C183.922 602.168 248.092 595.562 169.884 658.773C91.6773 721.983 2.74609 698.105 2.74609 698.105" stroke="url(#paint27_linear_43_3)" stroke-width="0.876228" stroke-linejoin="round"/>
<path d="M468.325 238.479C468.325 238.479 610.702 536.23 392.82 573.078C174.939 609.925 246.694 601.441 167.266 663.5C87.9259 725.559 1 700.469 1 700.469" stroke="url(#paint28_linear_43_3)" stroke-width="0.876228" stroke-linejoin="round"/>
<path d="M972.8 980.644C972.8 980.644 874.104 649.621 1108.03 702.771C1341.95 755.861 1436.72 903.373 1655.83 777.497C1874.93 651.621 1920 763.982 1920 763.982" stroke="url(#paint29_linear_43_3)" stroke-width="0.876228" stroke-linejoin="round"/>
<path d="M1914.16 765.558C1914.16 765.558 1855.05 653.56 1641.87 780.709C1428.61 907.858 1324.34 756.225 1096.08 705.196C867.822 654.106 958.933 976.765 964.775 980.462" stroke="url(#paint30_linear_43_3)" stroke-width="0.876228" stroke-linejoin="round"/>
<path d="M1908.33 767.134C1908.33 767.134 1835.27 655.5 1627.85 783.922C1420.51 912.282 1306.65 756.649 1084.06 707.62C861.469 658.652 945.169 972.947 956.678 980.341" stroke="url(#paint31_linear_43_3)" stroke-width="0.876228" stroke-linejoin="round"/>
<path d="M1902.48 768.71C1902.48 768.71 1815.38 657.44 1613.89 787.134C1412.49 916.768 1289.03 757.014 1072.02 710.045C855.099 663.137 931.3 969.13 948.563 980.16" stroke="url(#paint32_linear_43_3)" stroke-width="0.876228" stroke-linejoin="round"/>
<path d="M1896.64 770.346C1896.64 770.346 1795.5 659.379 1599.94 790.285C1404.38 921.191 1271.33 757.377 1060.08 712.529C848.821 667.621 917.437 965.251 940.455 980.038" stroke="url(#paint33_linear_43_3)" stroke-width="0.876228" stroke-linejoin="round"/>
<path d="M1890.8 771.922C1890.8 771.922 1775.63 661.379 1585.99 793.497C1396.27 925.676 1253.72 757.74 1048.05 714.953C842.459 672.106 903.577 961.432 932.436 979.917" stroke="url(#paint34_linear_43_3)" stroke-width="0.876228" stroke-linejoin="round"/>
<path d="M1884.86 773.497C1884.86 773.497 1755.83 663.317 1572.04 796.708C1388.16 930.16 1236.02 758.103 1036.1 717.377C836.087 676.59 889.708 957.614 924.321 979.734" stroke="url(#paint35_linear_43_3)" stroke-width="0.876228" stroke-linejoin="round"/>
<path d="M1879.03 775.074C1879.03 775.074 1735.95 665.259 1558 799.922C1380.14 934.586 1218.41 758.529 1024.07 719.803C829.728 681.137 875.85 953.797 916.218 979.615" stroke="url(#paint36_linear_43_3)" stroke-width="0.876228" stroke-linejoin="round"/>
<path d="M1873.18 776.649C1873.18 776.649 1716.07 667.197 1544.05 803.133C1372.03 939.069 1200.71 758.892 1012.12 722.226C823.446 685.621 861.983 949.918 908.105 979.493" stroke="url(#paint37_linear_43_3)" stroke-width="0.876228" stroke-linejoin="round"/>
<path d="M1861.5 779.861C1861.5 779.861 1676.4 671.136 1516.15 809.557C1355.81 947.978 1165.4 759.619 988.057 727.135C810.717 694.59 834.258 942.282 891.976 979.19" stroke="url(#paint38_linear_43_3)" stroke-width="0.876228" stroke-linejoin="round"/>
<path d="M1855.67 781.436C1855.67 781.436 1656.53 673.075 1502.12 812.769C1347.8 952.463 1147.79 760.043 976.12 729.559C804.448 699.075 820.404 938.402 883.876 979.007" stroke="url(#paint39_linear_43_3)" stroke-width="0.876228" stroke-linejoin="round"/>
<path d="M1849.81 783.013C1849.81 783.013 1636.73 675.015 1488.16 815.981C1339.68 956.887 1130.17 760.407 964.076 731.983C798.071 703.62 806.528 934.585 875.842 978.887" stroke="url(#paint40_linear_43_3)" stroke-width="0.876228" stroke-linejoin="round"/>
<path d="M1843.98 784.588C1843.98 784.588 1616.85 676.954 1474.22 819.193C1331.58 961.371 1112.47 760.77 952.137 734.407C791.712 708.105 792.671 930.766 867.74 978.765" stroke="url(#paint41_linear_43_3)" stroke-width="0.876228" stroke-linejoin="round"/>
<path d="M1838.13 786.164C1838.13 786.164 1596.97 678.954 1460.26 822.345C1323.55 965.796 1094.86 761.134 940.101 736.893C785.343 712.59 778.891 926.949 859.627 978.584" stroke="url(#paint42_linear_43_3)" stroke-width="0.876228" stroke-linejoin="round"/>
<path d="M1832.3 787.799C1832.3 787.799 1577.1 680.892 1446.32 825.556C1315.45 970.28 1077.17 761.496 928.079 739.315C779.075 717.073 765.038 923.068 851.528 978.461" stroke="url(#paint43_linear_43_3)" stroke-width="0.876228" stroke-linejoin="round"/>
<path d="M1826.45 789.377C1826.45 789.377 1557.31 682.834 1432.28 828.77C1307.34 974.706 1059.55 761.923 916.131 741.742C772.707 721.56 751.172 919.253 843.503 978.282" stroke="url(#paint44_linear_43_3)" stroke-width="0.876228" stroke-linejoin="round"/>
<path d="M1820.61 790.951C1820.61 790.951 1537.43 684.772 1418.33 831.98C1299.23 979.189 1041.85 762.285 904.097 744.164C766.341 726.104 737.307 915.433 835.393 978.159" stroke="url(#paint45_linear_43_3)" stroke-width="0.876228" stroke-linejoin="round"/>
<path d="M1814.77 792.527C1814.77 792.527 1517.55 686.772 1404.38 835.193C1291.21 983.674 1024.25 762.649 892.156 746.65C760.068 730.589 723.449 911.555 827.289 978.038" stroke="url(#paint46_linear_43_3)" stroke-width="0.876228" stroke-linejoin="round"/>
<path d="M1808.93 794.103C1808.93 794.103 1497.76 688.711 1390.43 838.404C1283.1 988.098 1006.54 763.012 880.12 749.073C753.699 735.074 709.582 907.736 819.176 977.856" stroke="url(#paint47_linear_43_3)" stroke-width="0.876228" stroke-linejoin="round"/>
<path d="M1803.09 795.74C1803.09 795.74 1477.88 690.652 1376.4 841.618C1275 992.584 988.936 763.438 868.182 751.499C747.34 739.56 695.725 903.919 811.161 977.736" stroke="url(#paint48_linear_43_3)" stroke-width="0.876228" stroke-linejoin="round"/>
<path d="M1797.25 797.315C1797.25 797.315 1458 692.59 1362.44 844.829C1266.89 997.007 971.233 763.8 856.145 753.922C740.971 744.043 681.858 900.04 803.048 977.613" stroke="url(#paint49_linear_43_3)" stroke-width="0.876228" stroke-linejoin="round"/>
<path d="M1791.4 798.891C1791.4 798.891 1438.12 694.53 1348.49 848.041C1258.86 1001.49 953.616 764.165 844.108 756.347C734.688 748.589 667.99 896.222 794.934 977.432" stroke="url(#paint50_linear_43_3)" stroke-width="0.876228" stroke-linejoin="round"/>
<path d="M1785.56 800.467C1785.56 800.467 1418.33 696.53 1334.54 851.254C1250.76 1005.92 936.009 764.528 832.169 758.831C728.329 753.074 654.132 892.404 786.831 977.311" stroke="url(#paint51_linear_43_3)" stroke-width="0.876228" stroke-linejoin="round"/>
<path d="M1779.72 802.042C1779.72 802.042 1398.45 698.468 1320.59 854.404C1242.65 1010.4 918.31 764.891 820.137 761.255C721.964 757.558 640.27 888.585 778.811 977.129" stroke="url(#paint52_linear_43_3)" stroke-width="0.876228" stroke-linejoin="round"/>
<path d="M1773.88 803.678C1773.88 803.678 1378.58 700.408 1306.56 857.617C1234.54 1014.89 900.702 765.316 808.196 763.679C715.69 762.043 626.41 884.707 770.705 977.008" stroke="url(#paint53_linear_43_3)" stroke-width="0.876228" stroke-linejoin="round"/>
<path d="M1768.04 805.254C1768.04 805.254 1358.78 702.347 1292.6 860.828C1226.52 1019.31 882.998 765.679 796.159 766.103C709.321 766.588 612.543 880.888 762.592 976.886" stroke="url(#paint54_linear_43_3)" stroke-width="0.876228" stroke-linejoin="round"/>
<g opacity="0.5">
<path d="M744.357 1019.01C744.357 1107.07 715.411 1195.31 714.975 1196.4L713.754 1196.21C714.278 1194.76 761.708 1050.34 734.854 946.584C711.052 854.526 633.193 843.556 550.714 831.859C471.373 820.647 389.33 809.072 347.829 725.135C293.86 615.986 233.526 596.41 166.043 583.441L166.305 582.532C234.224 595.622 294.906 615.319 349.049 724.832C390.289 808.284 471.984 819.86 550.975 831.011C633.891 842.708 712.185 853.798 736.162 946.463C742.09 969.311 744.357 994.159 744.357 1019.01Z" fill="url(#paint55_linear_43_3)"/>
<g opacity="0.8">
<path d="M737.476 1023.37C737.476 1111.43 708.442 1199.67 708.093 1200.82L706.873 1200.58C707.309 1199.12 754.826 1054.7 727.972 950.947C704.17 858.888 626.224 847.919 543.745 836.222C464.492 825.01 382.448 813.435 340.947 729.497C286.978 620.348 226.644 600.773 159.074 587.804L159.423 586.895C227.342 599.985 287.937 619.682 342.168 729.194C383.407 812.647 465.102 824.222 544.007 835.374C626.922 847.07 705.303 858.161 729.28 950.825C735.122 973.673 737.476 998.521 737.476 1023.37Z" fill="url(#paint56_linear_43_3)"/>
</g>
<g opacity="0.6">
<path d="M730.581 1027.73C730.581 1115.85 701.548 1204.03 701.199 1205.19L699.891 1204.94C700.414 1203.49 747.844 1059.07 721.078 955.312C697.188 863.254 619.33 852.284 536.851 840.588C457.51 829.376 375.467 817.8 333.965 733.863C279.996 624.774 219.663 605.139 152.18 592.169L152.528 591.321C220.36 604.351 281.043 624.047 335.186 733.62C376.513 817.012 458.12 828.588 537.112 839.739C620.027 851.436 698.322 862.526 722.298 955.191C728.227 978.039 730.581 1002.89 730.581 1027.73Z" fill="url(#paint57_linear_43_3)"/>
</g>
<g opacity="0.6">
<path d="M723.601 1032.1C723.601 1120.22 694.654 1208.4 694.218 1209.55L692.998 1209.31C693.434 1207.85 740.951 1063.43 714.097 959.675C690.295 867.616 612.437 856.647 529.957 844.95C450.617 833.738 368.573 822.163 327.072 738.226C273.103 629.137 212.769 609.501 145.199 596.532L145.548 595.683C213.467 608.713 274.062 628.41 328.293 737.983C369.532 821.375 451.227 832.951 530.132 844.102C613.047 855.799 691.428 866.889 715.405 959.554C721.334 982.402 723.601 1007.25 723.601 1032.1Z" fill="url(#paint58_linear_43_3)"/>
</g>
<g opacity="0.5">
<path d="M716.718 1036.46C716.718 1124.58 687.684 1212.76 687.336 1213.91L686.028 1213.67C686.551 1212.27 734.068 1067.79 707.214 964.099C683.412 871.979 605.467 861.01 522.987 849.313C443.647 838.101 361.603 826.526 320.102 742.588C266.133 633.5 205.887 613.864 138.316 600.895L138.665 600.046C206.584 613.076 267.179 632.773 321.323 742.346C362.65 825.738 444.257 837.314 523.249 848.465C606.164 860.161 684.458 871.252 708.435 963.917C714.364 986.765 716.718 1011.61 716.718 1036.46Z" fill="url(#paint59_linear_43_3)"/>
</g>
<g opacity="0.5">
<path d="M709.749 1040.88C709.749 1128.94 680.803 1217.12 680.367 1218.27L679.146 1218.03C679.669 1216.64 727.099 1072.16 700.246 968.462C676.443 876.404 598.585 865.373 516.106 853.677C436.765 842.465 354.722 830.889 313.221 747.013C259.252 637.864 198.918 618.228 131.348 605.258L131.696 604.41C199.615 617.44 260.298 637.136 314.441 746.71C355.681 830.102 437.375 841.677 516.367 852.828C599.283 864.525 677.577 875.616 701.553 968.28C707.482 991.128 709.749 1015.98 709.749 1040.88Z" fill="url(#paint60_linear_43_3)"/>
</g>
<g opacity="0.4">
<path d="M702.862 1045.25C702.862 1133.31 673.829 1221.49 673.48 1222.64L672.26 1222.46C672.695 1221 720.213 1076.52 693.359 972.826C669.557 880.767 591.611 869.737 509.132 858.101C429.791 846.889 347.835 835.253 306.334 751.376C252.278 642.227 192.031 622.591 124.461 609.622L124.81 608.774C192.729 621.804 253.324 641.5 307.555 751.073C348.794 834.465 430.402 846.041 509.393 857.192C592.309 868.949 670.69 879.979 694.58 972.644C700.508 995.492 702.862 1020.4 702.862 1045.25Z" fill="url(#paint61_linear_43_3)"/>
</g>
<g opacity="0.4">
<path d="M695.881 1049.61C695.881 1137.67 666.934 1225.85 666.586 1227L665.278 1226.82C665.801 1225.36 713.231 1080.88 686.464 977.188C662.575 885.129 584.717 874.099 502.237 862.463C422.897 851.251 340.853 839.615 299.352 755.738C245.383 646.589 185.049 626.953 117.566 613.984L117.915 613.135C185.747 626.165 246.429 645.862 300.573 755.435C341.812 838.888 423.507 850.403 502.499 861.554C585.414 873.311 663.708 884.341 687.685 977.006C693.614 999.854 695.881 1024.76 695.881 1049.61Z" fill="url(#paint62_linear_43_3)"/>
</g>
<g opacity="0.2">
<path d="M688.991 1053.98C688.991 1142.03 659.958 1230.21 659.609 1231.37L658.388 1231.18C658.824 1229.73 706.341 1085.25 679.488 981.553C655.686 889.495 577.74 878.465 495.261 866.829C416.007 855.617 333.964 843.981 292.463 760.104C238.494 650.955 178.16 631.319 110.59 618.349L110.939 617.501C178.858 630.531 239.453 650.227 293.683 759.801C334.923 843.253 416.618 854.768 495.522 865.919C578.438 877.677 656.819 888.707 680.796 981.371C686.637 1004.28 688.991 1029.13 688.991 1053.98Z" fill="url(#paint63_linear_43_3)"/>
</g>
<g opacity="0.2">
<path d="M682.104 1058.34C682.104 1146.4 653.071 1234.58 652.722 1235.73L651.414 1235.55C651.938 1234.09 699.368 1089.61 672.601 985.916C648.799 893.858 570.853 882.827 488.374 871.191C409.033 859.979 326.99 848.343 285.489 764.467C231.52 655.318 171.273 635.682 103.703 622.712L104.052 621.864C171.971 634.894 232.566 654.59 286.71 764.164C328.036 847.616 409.644 859.131 488.636 870.282C571.551 882.04 649.845 893.07 673.822 985.734C679.75 1008.64 682.104 1033.49 682.104 1058.34Z" fill="url(#paint64_linear_43_3)"/>
</g>
<g opacity="0.1">
<path d="M675.124 1062.7C675.124 1150.76 646.178 1239 645.742 1240.09L644.521 1239.91C644.957 1238.46 692.474 1093.97 665.621 990.279C641.818 898.221 563.96 887.191 481.481 875.555C402.14 864.343 320.097 852.767 278.596 768.83C224.627 659.681 164.293 640.045 96.7227 627.076L97.0714 626.227C164.99 639.257 225.586 658.954 279.816 768.527C321.056 851.98 402.751 863.495 481.655 874.646C564.658 886.403 642.952 897.433 666.928 990.098C672.857 1013.01 675.124 1037.85 675.124 1062.7Z" fill="url(#paint65_linear_43_3)"/>
</g>
<g opacity="0.1">
<path d="M668.245 1067.06C668.245 1155.12 639.212 1243.36 638.863 1244.45L637.555 1244.27C638.078 1242.82 685.595 1098.34 658.742 994.642C634.94 902.584 556.994 891.554 474.515 879.918C395.174 868.706 313.218 857.13 271.717 773.193C217.661 664.044 157.414 644.408 89.8438 631.439L90.1925 630.59C158.112 643.62 218.707 663.377 272.85 772.89C314.177 856.343 395.784 867.857 474.776 879.009C557.691 890.766 635.986 901.857 659.962 994.461C665.891 1017.37 668.245 1042.22 668.245 1067.06Z" fill="url(#paint66_linear_43_3)"/>
</g>
</g>
<g opacity="0.2">
<path d="M661.342 1075.55C661.342 1163.61 632.395 1251.85 631.959 1252.94L630.739 1252.76C631.262 1251.31 678.692 1106.88 651.838 1003.13C628.036 911.071 550.178 900.041 467.698 888.405C388.358 877.193 306.314 865.617 264.813 781.68C210.844 672.531 150.51 652.956 83.0273 639.986L83.2889 639.077C151.208 652.107 211.89 671.864 266.034 781.377C307.273 864.83 388.968 876.344 467.96 887.556C550.875 899.253 629.169 910.344 653.146 1003.01C659.075 1025.86 661.342 1050.7 661.342 1075.55Z" fill="url(#paint67_linear_43_3)"/>
<g opacity="0.8">
<path d="M654.464 1079.92C654.464 1167.97 625.43 1256.21 625.082 1257.31L623.861 1257.12C624.297 1255.67 671.814 1111.25 644.96 1007.49C621.158 915.434 543.213 904.404 460.733 892.768C381.393 881.556 299.437 869.981 257.935 786.043C203.966 676.894 143.633 657.319 76.0625 644.35L76.4113 643.441C144.33 656.531 204.926 676.228 259.156 785.74C300.396 869.193 382.003 880.708 460.995 891.92C543.91 903.616 622.292 914.707 646.268 1007.37C652.11 1030.22 654.464 1055.07 654.464 1079.92Z" fill="url(#paint68_linear_43_3)"/>
</g>
<g opacity="0.6">
<path d="M647.486 1084.28C647.486 1172.34 618.54 1260.58 618.191 1261.73L616.883 1261.49C617.406 1260.03 664.836 1115.61 638.07 1011.86C614.18 919.797 536.322 908.828 453.843 897.131C374.502 885.919 292.459 874.344 250.958 790.406C196.989 681.257 136.655 661.682 69.1719 648.713L69.5206 647.803C137.352 660.894 198.035 680.591 252.178 790.103C293.418 873.556 375.113 885.131 454.104 896.283C537.02 907.979 615.314 919.07 639.29 1011.73C645.219 1034.58 647.486 1059.43 647.486 1084.28Z" fill="url(#paint69_linear_43_3)"/>
</g>
<g opacity="0.6">
<path d="M640.589 1088.64C640.589 1176.76 611.555 1264.94 611.207 1266.09L609.986 1265.85C610.422 1264.4 657.939 1119.97 631.085 1016.22C607.283 924.161 529.338 913.191 446.858 901.495C367.605 890.283 285.562 878.707 244.06 794.77C190.091 685.682 129.758 666.046 62.1875 653.076L62.5362 652.167C130.455 665.258 191.051 684.954 245.281 794.527C286.521 877.919 368.215 889.495 447.12 900.646C530.035 912.343 608.417 923.434 632.393 1016.1C638.322 1038.95 640.589 1063.79 640.589 1088.64Z" fill="url(#paint70_linear_43_3)"/>
</g>
<g opacity="0.5">
<path d="M633.706 1093.01C633.706 1181.13 604.673 1269.31 604.324 1270.46L603.016 1270.21C603.539 1268.76 650.969 1124.34 624.203 1020.58C600.4 928.525 522.455 917.556 439.976 905.859C360.635 894.647 278.592 883.072 237.09 799.134C183.121 690.046 122.875 670.41 55.3047 657.441L55.6534 656.592C123.572 669.622 184.168 689.319 238.311 798.892C279.638 882.284 361.245 893.86 440.237 905.011C523.152 916.708 601.447 927.798 625.423 1020.46C631.352 1043.31 633.706 1068.16 633.706 1093.01Z" fill="url(#paint71_linear_43_3)"/>
</g>
<g opacity="0.5">
<path d="M626.741 1097.37C626.741 1185.49 597.795 1273.67 597.359 1274.82L596.138 1274.58C596.574 1273.18 644.091 1128.7 617.238 1024.95C593.436 932.888 515.577 921.919 433.098 910.222C353.757 899.01 271.714 887.435 230.213 803.497C176.244 694.409 115.91 674.773 48.3398 661.804L48.6886 660.955C116.608 673.985 177.203 693.682 231.433 803.255C272.673 886.647 354.368 898.222 433.359 909.374C516.275 921.07 594.569 932.161 618.546 1024.83C624.474 1047.67 626.741 1072.52 626.741 1097.37Z" fill="url(#paint72_linear_43_3)"/>
</g>
<g opacity="0.4">
<path d="M619.847 1101.79C619.847 1189.85 590.813 1278.03 590.465 1279.18L589.244 1278.94C589.68 1277.55 637.197 1133.06 610.343 1029.37C586.541 937.311 508.596 926.281 426.116 914.584C346.776 903.372 264.819 891.796 223.318 807.92C169.262 698.771 109.016 679.135 41.4453 666.165L41.7941 665.317C109.713 678.347 170.308 698.043 224.452 807.617C265.779 891.009 347.386 902.584 426.378 913.735C509.293 925.432 587.674 936.523 611.564 1029.19C617.493 1052.04 619.847 1076.88 619.847 1101.79Z" fill="url(#paint73_linear_43_3)"/>
</g>
<g opacity="0.2">
<path d="M605.983 1110.52C605.983 1198.58 576.95 1286.76 576.601 1287.91L575.381 1287.73C575.817 1286.27 623.334 1141.79 596.48 1038.1C572.678 946.038 494.732 935.008 412.253 923.372C333 912.16 250.956 900.524 209.455 816.647C155.486 707.498 95.1523 687.862 27.582 674.893L27.9308 674.044C95.8498 687.074 156.445 706.771 210.676 816.344C251.915 899.796 333.61 911.311 412.514 922.463C495.43 934.22 573.811 945.25 597.788 1037.91C603.629 1060.76 605.983 1085.67 605.983 1110.52Z" fill="url(#paint74_linear_43_3)"/>
</g>
<g opacity="0.2">
<path d="M599.093 1114.88C599.093 1202.94 570.059 1291.12 569.711 1292.27L568.403 1292.09C568.926 1290.64 616.356 1146.16 589.589 1042.46C565.787 950.403 487.842 939.373 405.362 927.737C326.022 916.525 243.978 904.889 202.477 821.012C148.508 711.863 88.1745 692.227 20.6914 679.257L21.0402 678.409C88.9592 691.439 149.554 711.135 203.698 820.709C245.025 904.161 326.632 915.676 405.624 926.827C488.539 938.585 566.833 949.615 590.81 1042.28C596.739 1065.13 599.093 1090.04 599.093 1114.88Z" fill="url(#paint75_linear_43_3)"/>
</g>
<g opacity="0.1">
<path d="M592.116 1119.25C592.116 1207.31 563.17 1295.49 562.734 1296.64L561.513 1296.46C561.949 1295 609.466 1150.52 582.613 1046.83C558.811 954.767 480.952 943.737 398.473 932.101C319.132 920.889 237.089 909.253 195.588 825.376C141.619 716.227 81.2851 696.591 13.7148 683.622L14.0636 682.774C81.9826 695.804 142.578 715.5 196.808 825.073C238.048 908.526 319.743 920.041 398.647 931.192C481.65 942.949 559.944 953.979 583.921 1046.64C589.849 1069.55 592.116 1094.4 592.116 1119.25Z" fill="url(#paint76_linear_43_3)"/>
</g>
<g opacity="0.1">
<path d="M585.229 1123.61C585.229 1211.67 556.196 1299.85 555.847 1301L554.539 1300.82C555.063 1299.36 602.58 1154.88 575.726 1051.19C551.924 959.129 473.978 948.099 391.499 936.463C312.158 925.251 230.202 913.615 188.614 829.738C134.645 720.589 74.3984 700.953 6.82812 687.984L7.17687 687.136C75.0959 700.166 135.691 719.862 189.835 829.435C231.161 912.888 312.769 924.403 391.761 935.554C474.676 947.311 552.97 958.341 576.947 1051.01C582.875 1073.91 585.229 1098.76 585.229 1123.61Z" fill="url(#paint77_linear_43_3)"/>
</g>
</g>
<path d="M820.819 965.916C820.819 1053.97 791.786 1142.15 791.437 1143.31L790.217 1143.06C790.652 1141.67 838.17 997.188 811.316 893.494C787.514 801.435 709.568 790.405 627.089 778.708C547.835 767.497 465.792 755.921 424.291 672.044C370.322 562.895 309.988 543.259 242.418 530.29L242.767 529.442C310.686 542.472 371.281 562.168 425.512 671.741C466.751 755.133 548.446 766.709 627.35 777.86C710.266 789.557 788.647 800.647 812.624 893.312C818.465 916.16 820.819 941.008 820.819 965.916Z" fill="url(#paint78_linear_43_3)"/>
<g opacity="0.8">
<path d="M813.933 970.28C813.933 1058.34 784.899 1146.52 784.55 1147.67L783.243 1147.49C783.766 1146.03 831.196 1001.55 804.429 897.858C780.627 805.799 702.681 794.769 620.202 783.133C540.862 771.921 458.818 760.285 417.317 676.408C363.348 567.259 303.102 547.623 235.531 534.654L235.88 533.805C303.799 546.835 364.394 566.532 418.538 676.105C459.864 759.497 541.472 771.073 620.464 782.224C703.379 793.921 781.673 805.011 805.65 897.676C811.579 920.524 813.933 945.432 813.933 970.28Z" fill="#FACD35"/>
</g>
<g opacity="0.6">
<path d="M806.956 974.643C806.956 1062.7 778.01 1150.88 777.574 1152.03L776.353 1151.85C776.789 1150.4 824.306 1005.91 797.453 902.22C773.65 810.162 695.792 799.132 613.313 787.496C533.972 776.284 451.929 764.648 410.428 680.771C356.459 571.622 296.125 551.986 228.555 539.017L228.903 538.168C296.822 551.198 357.418 570.895 411.648 680.468C452.888 763.921 534.583 775.435 613.574 786.587C696.49 798.344 774.784 809.374 798.76 902.039C804.689 924.887 806.956 949.795 806.956 974.643Z" fill="url(#paint79_linear_43_3)"/>
</g>
<g opacity="0.6">
<path d="M800.061 979.008C800.061 1067.07 771.028 1155.25 770.679 1156.4L769.459 1156.22C769.895 1154.76 817.412 1010.28 790.558 906.585C766.756 814.527 688.81 803.497 606.331 791.861C526.991 780.649 445.034 769.013 403.533 685.136C349.477 575.987 289.23 556.351 221.66 543.382L222.009 542.533C289.928 555.563 350.523 575.26 404.667 684.833C445.993 768.285 527.601 779.8 606.593 790.952C689.508 802.709 767.802 813.739 791.779 906.403C797.707 929.251 800.061 954.16 800.061 979.008Z" fill="url(#paint80_linear_43_3)"/>
</g>
<g opacity="0.5">
<path d="M793.092 983.371C793.092 1071.43 764.145 1159.61 763.709 1160.76L762.489 1160.58C763.012 1159.12 810.442 1014.64 783.588 910.949C759.786 818.89 681.928 807.86 599.448 796.224C520.108 785.012 438.064 773.376 396.563 689.499C342.594 580.35 282.26 560.714 214.777 547.745L215.039 546.897C282.958 559.927 343.64 579.623 397.784 689.196C439.023 772.649 520.718 784.164 599.71 795.315C682.625 807.072 760.919 818.102 784.896 910.767C790.825 933.676 793.092 958.523 793.092 983.371Z" fill="url(#paint81_linear_43_3)"/>
</g>
<g opacity="0.5">
<path d="M786.206 987.735C786.206 1075.79 757.173 1164.03 756.824 1165.12L755.603 1164.94C756.039 1163.49 803.556 1019.01 776.703 915.312C752.9 823.254 674.955 812.224 592.476 800.588C513.222 789.376 431.179 777.8 389.678 693.863C335.709 584.714 275.375 565.078 207.805 552.109L208.153 551.26C276.072 564.29 336.668 583.987 390.898 693.56C432.138 777.012 513.833 788.527 592.737 799.679C675.652 811.436 754.034 822.466 778.01 915.13C783.852 938.039 786.206 962.887 786.206 987.735Z" fill="url(#paint82_linear_43_3)"/>
</g>
<g opacity="0.4">
<path d="M779.319 992.1C779.319 1080.16 750.286 1168.4 749.937 1169.49L748.629 1169.31C749.152 1167.85 796.582 1023.37 769.816 919.677C745.927 827.619 668.068 816.589 585.589 804.953C506.248 793.741 424.205 782.165 382.704 698.228C328.735 589.079 268.401 569.443 200.918 556.473L201.267 555.625C269.099 568.655 329.781 588.412 383.924 697.925C425.251 781.377 506.859 792.892 585.85 804.043C668.766 815.801 747.06 826.831 771.037 919.495C776.965 942.404 779.319 967.252 779.319 992.1Z" fill="url(#paint83_linear_43_3)"/>
</g>
<g opacity="0.4">
<path d="M772.343 996.461C772.343 1084.52 743.397 1172.76 742.961 1173.85L741.74 1173.67C742.176 1172.21 789.693 1027.73 762.839 924.038C739.037 831.979 661.179 820.949 578.699 809.313C499.359 798.101 417.316 786.526 375.814 702.589C321.845 593.44 261.512 573.804 193.941 560.834L194.29 559.986C262.209 573.016 322.804 592.773 377.035 702.286C418.275 785.738 499.969 797.253 578.874 808.404C661.789 820.162 740.171 831.252 764.147 923.856C770.076 946.765 772.343 971.613 772.343 996.461Z" fill="url(#paint84_linear_43_3)"/>
</g>
<g opacity="0.2">
<path d="M765.456 1000.83C765.456 1088.88 736.423 1177.12 736.074 1178.22L734.766 1178.03C735.289 1176.58 782.806 1032.16 755.953 928.403C732.15 836.344 654.205 825.314 571.726 813.678C492.385 802.466 410.342 790.891 368.84 706.953C314.871 597.804 254.625 578.229 187.055 565.199L187.403 564.351C255.322 577.381 315.918 597.138 370.061 706.65C411.388 790.103 492.995 801.618 571.987 812.83C654.902 824.526 733.197 835.617 757.173 928.221C763.102 951.13 765.456 975.977 765.456 1000.83Z" fill="url(#paint85_linear_43_3)"/>
</g>
<g opacity="0.2">
<path d="M758.487 1005.19C758.487 1093.25 729.541 1181.49 729.105 1182.58L727.885 1182.4C728.408 1180.94 775.838 1036.52 748.984 932.766C725.182 840.708 647.323 829.678 564.844 818.042C485.503 806.83 403.46 795.254 361.959 711.317C307.99 602.168 247.656 582.593 180.086 569.623L180.435 568.714C248.354 581.805 309.036 601.501 363.18 711.014C404.419 794.466 486.114 805.981 565.106 817.193C648.021 828.89 726.315 839.981 750.292 932.645C756.22 955.493 758.487 980.341 758.487 1005.19Z" fill="url(#paint86_linear_43_3)"/>
</g>
<g opacity="0.1">
<path d="M751.589 1009.55C751.589 1097.61 722.555 1185.85 722.207 1186.94L720.986 1186.76C721.422 1185.31 768.939 1040.89 742.085 937.13C718.283 845.072 640.338 834.102 557.858 822.405C478.518 811.194 396.562 799.618 355.06 715.681C301.004 606.532 240.758 586.956 173.188 573.987L173.536 573.078C241.455 586.169 302.051 605.865 356.281 715.378C397.521 798.83 479.128 810.406 558.12 821.557C641.035 833.254 719.417 844.344 743.306 937.009C749.235 959.857 751.589 984.705 751.589 1009.55Z" fill="url(#paint87_linear_43_3)"/>
</g>
<g opacity="0.1">
<path d="M744.619 1013.92C744.619 1101.97 715.673 1190.22 715.324 1191.37L714.016 1191.12C714.539 1189.67 761.969 1045.25 735.203 941.494C711.313 849.435 633.455 838.466 550.976 826.769C471.635 815.557 389.592 803.982 348.09 720.044C294.121 610.895 233.788 591.32 166.305 578.351L166.653 577.442C234.485 590.532 295.168 610.229 349.311 719.741C390.551 803.194 472.245 814.769 551.237 825.921C634.152 837.617 712.447 848.708 736.423 941.373C742.352 964.22 744.619 989.068 744.619 1013.92Z" fill="url(#paint88_linear_43_3)"/>
</g>
<g opacity="0.6">
<path d="M1041.76 281.995C1041.76 193.936 1070.79 105.696 1071.14 104.544L1072.36 104.787C1071.92 106.241 1024.41 250.662 1051.26 354.417C1075.06 446.476 1153.01 457.445 1235.49 469.142C1314.83 480.354 1396.79 491.929 1438.29 575.867C1492.26 685.016 1552.59 704.591 1620.16 717.56L1619.81 718.469C1551.89 705.379 1491.3 685.682 1437.07 576.17C1395.83 492.717 1314.22 481.142 1235.23 469.99C1152.31 458.294 1073.93 447.203 1050.04 354.538C1044.11 331.69 1041.76 306.843 1041.76 281.995Z" fill="url(#paint89_linear_43_3)"/>
<g opacity="0.8">
<path d="M1048.73 277.629C1048.73 189.51 1077.68 101.33 1078.03 100.179L1079.34 100.421C1078.81 101.875 1031.38 246.296 1058.15 350.052C1082.04 442.11 1159.9 453.079 1242.38 464.776C1321.72 475.988 1403.76 487.564 1445.26 571.501C1499.23 680.589 1559.57 700.225 1627.05 713.195L1626.7 714.043C1558.87 701.013 1498.19 681.317 1444.04 571.743C1402.8 488.351 1321.11 476.776 1242.12 465.625C1159.2 453.928 1080.91 442.837 1056.93 350.173C1051 327.325 1048.73 302.477 1048.73 277.629Z" fill="url(#paint90_linear_43_3)"/>
</g>
<g opacity="0.6">
<path d="M1055.62 273.267C1055.62 185.148 1084.65 96.9682 1085 95.8167L1086.22 96.0591C1085.79 97.5136 1038.27 241.935 1065.12 345.69C1088.93 437.748 1166.87 448.718 1249.35 460.414C1328.6 471.626 1410.65 483.202 1452.15 567.139C1506.12 676.227 1566.45 695.863 1634.02 708.833L1633.67 709.681C1565.75 696.651 1505.16 676.955 1450.93 567.382C1409.69 483.99 1327.99 472.414 1249.09 461.263C1166.17 449.566 1087.79 438.475 1063.82 345.811C1057.89 322.963 1055.62 298.115 1055.62 273.267Z" fill="url(#paint91_linear_43_3)"/>
</g>
<g opacity="0.6">
<path d="M1062.52 268.901C1062.52 180.782 1091.55 92.6024 1091.9 91.4509L1093.21 91.6933C1092.68 93.0872 1045.25 237.569 1072.02 341.263C1095.82 433.382 1173.77 444.352 1256.25 456.048C1335.59 467.26 1417.63 478.836 1459.13 562.773C1513.1 671.862 1573.35 691.498 1640.92 704.467L1640.57 705.315C1572.65 692.285 1512.05 672.589 1457.91 563.016C1416.58 479.624 1334.98 468.048 1255.98 456.897C1173.07 445.2 1094.77 434.11 1070.8 341.445C1064.87 318.597 1062.52 293.749 1062.52 268.901Z" fill="url(#paint92_linear_43_3)"/>
</g>
<g opacity="0.5">
<path d="M1069.49 264.478C1069.49 176.42 1098.43 88.2399 1098.87 87.0884L1100.09 87.3308C1099.66 88.7247 1052.14 233.206 1078.99 336.901C1102.79 428.959 1180.65 439.989 1263.13 451.686C1342.47 462.898 1424.52 474.473 1466.02 558.35C1519.99 667.499 1580.32 687.135 1647.89 700.104L1647.54 700.953C1579.62 687.923 1519.03 668.226 1464.8 558.653C1423.56 475.261 1341.86 463.686 1262.87 452.534C1179.95 440.838 1101.66 429.747 1077.68 337.083C1071.76 314.235 1069.49 289.387 1069.49 264.478Z" fill="url(#paint93_linear_43_3)"/>
</g>
<g opacity="0.5">
<path d="M1076.37 260.117C1076.37 172.058 1105.4 83.8783 1105.75 82.7268L1106.97 82.9086C1106.54 84.3631 1059.02 228.845 1085.87 332.539C1109.68 424.598 1187.62 435.628 1270.1 447.264C1349.44 458.476 1431.4 470.112 1472.9 553.989C1526.96 663.138 1587.2 682.773 1654.77 695.743L1654.42 696.591C1586.5 683.561 1525.91 663.865 1471.77 554.292C1430.44 470.9 1348.83 459.324 1269.84 448.173C1186.92 436.416 1108.54 425.386 1084.65 332.721C1078.73 309.873 1076.37 284.965 1076.37 260.117Z" fill="url(#paint94_linear_43_3)"/>
</g>
<g opacity="0.4">
<path d="M1083.36 255.752C1083.36 167.693 1112.31 79.5134 1112.74 78.3619L1113.96 78.5437C1113.44 79.9982 1066.01 224.48 1092.86 328.174C1116.66 420.233 1194.52 431.263 1277 442.899C1356.34 454.111 1438.39 465.747 1479.89 549.624C1533.86 658.773 1594.19 678.409 1661.67 691.378L1661.41 692.226C1593.49 679.196 1532.81 659.5 1478.67 549.927C1437.43 466.474 1355.73 454.959 1276.74 443.808C1193.83 432.051 1115.53 421.021 1091.55 328.356C1085.63 305.508 1083.36 280.6 1083.36 255.752Z" fill="url(#paint95_linear_43_3)"/>
</g>
<g opacity="0.4">
<path d="M1090.23 251.389C1090.23 163.33 1119.26 75.1506 1119.61 73.9991L1120.83 74.181C1120.4 75.6355 1072.88 220.117 1099.73 323.812C1123.54 415.87 1201.48 426.9 1283.96 438.536C1363.21 449.748 1445.26 461.384 1486.76 545.261C1540.73 654.41 1601.06 674.046 1668.63 687.015L1668.28 687.864C1600.36 674.834 1539.77 655.137 1485.54 545.564C1444.3 462.111 1362.6 450.596 1283.7 439.445C1200.78 427.688 1122.4 416.658 1098.43 323.993C1092.58 301.145 1090.23 276.237 1090.23 251.389Z" fill="url(#paint96_linear_43_3)"/>
</g>
<g opacity="0.2">
<path d="M1097.21 247.025C1097.21 158.967 1126.16 70.7868 1126.51 69.6353L1127.81 69.8171C1127.29 71.2716 1079.86 215.753 1106.63 319.448C1130.43 411.506 1208.37 422.536 1290.85 434.172C1370.19 445.384 1452.24 457.02 1493.74 540.897C1547.71 650.046 1608.04 669.682 1675.53 682.651L1675.18 683.5C1607.34 670.47 1546.66 650.773 1492.52 541.2C1451.19 457.748 1369.58 446.233 1290.59 435.081C1207.68 423.324 1129.38 412.294 1105.41 319.63C1099.48 296.721 1097.21 271.873 1097.21 247.025Z" fill="url(#paint97_linear_43_3)"/>
</g>
<g opacity="0.2">
<path d="M1104.1 242.662C1104.1 154.603 1133.05 66.3627 1133.48 65.2719L1134.7 65.4537C1134.27 66.9082 1086.75 211.39 1113.61 315.084C1137.41 407.143 1215.27 418.173 1297.74 429.809C1377.09 441.021 1459.13 452.596 1500.63 536.534C1554.6 645.683 1614.93 665.319 1682.5 678.288L1682.15 679.136C1614.24 666.106 1553.64 646.41 1499.41 536.837C1458.17 453.384 1376.48 441.869 1297.57 430.718C1214.57 418.961 1136.27 407.931 1112.3 315.266C1106.37 292.357 1104.1 267.51 1104.1 242.662Z" fill="url(#paint98_linear_43_3)"/>
</g>
<g opacity="0.1">
<path d="M1110.99 238.298C1110.99 150.239 1140.03 61.9989 1140.37 60.908L1141.68 61.0898C1141.16 62.5443 1093.73 207.026 1120.5 310.72C1144.3 402.779 1222.24 413.809 1304.72 425.445C1384.06 436.657 1466.02 448.232 1507.61 532.17C1561.58 641.319 1621.82 660.955 1689.39 673.924L1689.04 674.773C1621.13 661.743 1560.53 641.985 1506.39 532.473C1465.06 449.02 1383.45 437.505 1304.46 426.354C1221.55 414.597 1143.25 403.506 1119.27 310.902C1113.35 287.994 1110.99 263.146 1110.99 238.298Z" fill="url(#paint99_linear_43_3)"/>
</g>
<g opacity="0.1">
<path d="M1117.96 233.934C1117.96 145.876 1146.9 57.6352 1147.34 56.5443L1148.56 56.7261C1148.04 58.1806 1100.61 202.662 1127.46 306.357C1151.26 398.415 1229.12 409.445 1311.6 421.081C1390.94 432.293 1472.98 443.869 1514.49 527.806C1568.45 636.955 1628.79 656.591 1696.36 669.56L1696.01 670.409C1628.09 657.379 1567.41 637.622 1513.26 528.109C1472.03 444.657 1390.33 433.142 1311.34 421.93C1228.42 410.233 1150.13 399.142 1126.15 306.539C1120.22 283.63 1117.96 258.782 1117.96 233.934Z" fill="url(#paint100_linear_43_3)"/>
</g>
</g>
<g opacity="0.3">
<path d="M1124.76 225.448C1124.76 137.39 1153.8 49.1494 1154.14 48.0585L1155.36 48.2404C1154.93 49.6949 1107.41 194.116 1134.27 297.871C1158.07 389.929 1236.01 400.899 1318.49 412.596C1397.83 423.807 1479.79 435.383 1521.29 519.32C1575.35 628.469 1635.59 648.045 1703.16 661.014L1702.81 661.923C1634.9 648.833 1574.3 629.136 1520.07 519.623C1478.83 436.171 1397.22 424.656 1318.23 413.444C1235.32 401.747 1156.93 390.657 1133.04 297.992C1127.12 275.144 1124.76 250.296 1124.76 225.448Z" fill="url(#paint101_linear_43_3)"/>
<g opacity="0.8">
<path d="M1131.74 221.083C1131.74 133.025 1160.69 44.7845 1161.04 43.6331L1162.35 43.8755C1161.82 45.33 1114.39 189.751 1141.16 293.506C1165.05 385.564 1242.91 396.534 1325.39 408.231C1404.73 419.442 1486.77 431.018 1528.27 514.955C1582.24 624.104 1642.57 643.68 1710.06 656.649L1709.71 657.558C1641.88 644.468 1581.19 624.771 1527.05 515.258C1485.81 431.806 1404.12 420.23 1325.12 409.079C1242.21 397.382 1163.91 386.292 1139.94 293.627C1134.01 270.779 1131.74 245.931 1131.74 221.083Z" fill="url(#paint102_linear_43_3)"/>
</g>
<g opacity="0.6">
<path d="M1138.62 216.722C1138.62 128.603 1167.65 40.423 1168 39.2715L1169.22 39.5139C1168.79 40.9684 1121.27 185.389 1148.12 289.144C1171.93 381.203 1249.87 392.172 1332.35 403.869C1411.6 415.081 1493.65 426.656 1535.15 510.594C1589.12 619.682 1649.45 639.318 1717.02 652.288L1716.67 653.197C1648.75 640.106 1588.16 620.409 1533.93 510.836C1492.69 427.444 1410.99 415.869 1332.09 404.718C1249.17 393.021 1170.79 381.93 1146.82 289.266C1140.98 266.418 1138.62 241.57 1138.62 216.722Z" fill="url(#paint103_linear_43_3)"/>
</g>
<g opacity="0.6">
<path d="M1145.51 212.357C1145.51 124.238 1174.55 36.0585 1174.89 34.907L1176.2 35.1494C1175.68 36.6039 1128.25 181.025 1155.02 284.78C1178.82 376.838 1256.76 387.808 1339.24 399.505C1418.58 410.716 1500.63 422.292 1542.13 506.229C1596.1 615.318 1656.34 634.954 1723.91 647.923L1723.56 648.772C1655.65 635.742 1595.05 616.045 1540.91 506.472C1499.58 423.08 1417.97 411.504 1338.98 400.353C1256.07 388.656 1177.77 377.566 1153.79 284.901C1147.87 262.053 1145.51 237.205 1145.51 212.357Z" fill="url(#paint104_linear_43_3)"/>
</g>
<g opacity="0.5">
<path d="M1152.49 207.995C1152.49 119.876 1181.43 31.6965 1181.87 30.545L1183.09 30.7874C1182.66 32.1813 1135.14 176.663 1161.99 280.418C1185.79 372.476 1263.65 383.446 1346.13 395.143C1425.47 406.354 1507.52 417.93 1549.02 501.867C1602.99 610.956 1663.32 630.592 1730.89 643.561L1730.54 644.41C1662.62 631.38 1602.03 611.683 1547.8 502.11C1506.56 418.718 1424.86 407.142 1345.96 395.991C1262.95 384.294 1184.66 373.204 1160.68 280.539C1154.76 257.691 1152.49 232.843 1152.49 207.995Z" fill="url(#paint105_linear_43_3)"/>
</g>
<g opacity="0.5">
<path d="M1159.38 203.573C1159.38 115.514 1188.42 27.3347 1188.76 26.1832L1190.07 26.4257C1189.55 27.8196 1142.03 172.301 1168.89 275.996C1192.69 368.054 1270.63 379.084 1353.11 390.781C1432.45 401.993 1514.41 413.568 1555.91 497.445C1609.97 606.594 1670.21 626.23 1737.78 639.199L1737.44 640.048C1669.52 627.018 1608.92 607.321 1554.78 497.748C1513.45 414.356 1431.84 402.781 1352.85 391.629C1269.94 379.933 1191.64 368.842 1167.67 276.177C1161.74 253.329 1159.38 228.482 1159.38 203.573Z" fill="url(#paint106_linear_43_3)"/>
</g>
<g opacity="0.4">
<path d="M1166.36 199.207C1166.36 111.149 1195.31 22.969 1195.74 21.8175L1196.96 21.9993C1196.44 23.4538 1149.01 167.935 1175.86 271.63C1199.66 363.688 1277.52 374.718 1360 386.355C1439.34 397.566 1521.39 409.202 1562.89 493.079C1616.86 602.228 1677.19 621.864 1744.67 634.834L1744.41 635.682C1676.49 622.652 1615.81 602.956 1561.67 493.382C1520.43 409.99 1438.73 398.415 1359.74 387.264C1276.83 375.567 1198.53 364.476 1174.56 271.812C1168.63 248.964 1166.36 224.116 1166.36 199.207Z" fill="url(#paint107_linear_43_3)"/>
</g>
<g opacity="0.4">
<path d="M1173.24 194.845C1173.24 106.786 1202.27 18.6064 1202.62 17.455L1203.84 17.6368C1203.41 19.0913 1155.89 163.573 1182.74 267.267C1206.54 359.326 1284.49 370.356 1366.97 381.992C1446.31 393.204 1528.27 404.84 1569.77 488.717C1623.74 597.866 1684.07 617.502 1751.64 630.471L1751.29 631.32C1683.37 618.29 1622.78 598.593 1568.55 489.02C1527.31 405.567 1445.7 394.052 1366.71 382.901C1283.79 371.144 1205.41 360.114 1181.43 267.449C1175.59 244.601 1173.24 219.693 1173.24 194.845Z" fill="url(#paint108_linear_43_3)"/>
</g>
<g opacity="0.2">
<path d="M1180.21 190.481C1180.21 102.422 1209.16 14.2426 1209.51 13.0911L1210.82 13.2729C1210.29 14.7274 1162.86 159.209 1189.63 262.904C1213.52 354.962 1291.38 365.992 1373.86 377.628C1453.2 388.84 1535.24 400.476 1576.74 484.353C1630.71 593.502 1691.05 613.138 1758.53 626.107L1758.18 626.956C1690.35 613.926 1629.67 594.229 1575.52 484.656C1534.2 401.203 1452.59 389.688 1373.6 378.537C1290.68 366.78 1212.39 355.75 1188.41 263.085C1182.48 240.237 1180.21 215.329 1180.21 190.481Z" fill="url(#paint109_linear_43_3)"/>
</g>
<g opacity="0.2">
<path d="M1187.11 186.118C1187.11 98.0597 1216.14 9.87988 1216.49 8.72839L1217.71 8.9102C1217.28 10.3647 1169.76 154.846 1196.61 258.541C1220.41 350.599 1298.36 361.629 1380.84 373.265C1460.09 384.477 1542.14 396.113 1583.64 479.99C1637.61 589.139 1697.94 608.775 1765.51 621.745L1765.16 622.593C1697.24 609.563 1636.65 589.866 1582.42 480.293C1541.18 396.841 1459.48 385.326 1380.58 374.174C1297.66 362.417 1219.28 351.387 1195.31 258.723C1189.38 235.814 1187.11 210.966 1187.11 186.118Z" fill="url(#paint110_linear_43_3)"/>
</g>
<g opacity="0.1">
<path d="M1193.99 181.753C1193.99 93.6948 1223.03 5.51501 1223.37 4.36353L1224.68 4.54533C1224.16 5.99984 1176.73 150.481 1203.5 254.176C1227.3 346.234 1305.24 357.264 1387.72 368.901C1467.06 380.112 1549.11 391.748 1590.61 475.625C1644.58 584.774 1704.82 604.41 1772.39 617.38L1772.04 618.228C1704.13 605.198 1643.53 585.502 1589.39 475.928C1548.06 392.476 1466.45 380.961 1387.46 369.81C1304.55 358.052 1226.25 347.022 1202.27 254.358C1196.35 231.449 1193.99 206.601 1193.99 181.753Z" fill="url(#paint111_linear_43_3)"/>
</g>
<g opacity="0.1">
<path d="M1200.96 177.39C1200.96 89.3313 1229.91 1.09088 1230.34 0L1231.56 0.181844C1231.13 1.63636 1183.61 146.118 1210.46 249.812C1234.27 341.871 1312.12 352.901 1394.6 364.537C1473.94 375.749 1555.99 387.324 1597.49 471.262C1651.46 580.411 1711.79 600.047 1779.36 613.016L1779.01 613.865C1711.09 600.835 1650.5 581.077 1596.27 471.565C1555.03 388.112 1473.33 376.597 1394.34 365.446C1311.43 353.689 1233.13 342.659 1209.16 249.994C1203.23 227.086 1200.96 202.238 1200.96 177.39Z" fill="url(#paint112_linear_43_3)"/>
</g>
</g>
<path d="M965.297 335.084C965.297 247.026 994.33 158.846 994.679 157.695L995.987 157.876C995.464 159.331 948.034 303.812 974.8 407.507C998.602 499.565 1076.55 510.595 1159.03 522.232C1238.37 533.443 1320.41 545.079 1361.91 628.956C1415.88 738.105 1476.13 757.741 1543.7 770.711L1543.35 771.559C1475.43 758.529 1414.84 738.833 1360.69 629.259C1319.37 545.867 1237.76 534.292 1158.77 523.141C1075.85 511.383 997.556 500.353 973.58 407.689C967.651 384.841 965.297 359.932 965.297 335.084Z" fill="url(#paint113_linear_43_3)"/>
<g opacity="0.8">
<path d="M972.277 330.72C972.277 242.661 1001.22 154.481 1001.66 153.33L1002.88 153.512C1002.44 154.966 954.927 299.448 981.781 403.142C1005.58 495.201 1083.44 506.231 1165.92 517.867C1245.26 529.079 1327.3 540.715 1368.81 624.592C1422.77 733.741 1483.11 753.377 1550.68 766.346L1550.33 767.194C1482.41 754.164 1421.82 734.468 1367.59 624.895C1326.35 541.442 1244.65 529.927 1165.75 518.776C1082.74 507.019 1004.45 495.989 980.473 403.324C974.544 380.476 972.277 355.568 972.277 330.72Z" fill="url(#paint114_linear_43_3)"/>
</g>
<g opacity="0.6">
<path d="M979.16 326.357C979.16 238.298 1008.19 150.119 1008.54 148.967L1009.85 149.149C1009.33 150.603 961.81 295.085 988.664 398.779C1012.47 490.838 1090.41 501.868 1172.89 513.504C1252.23 524.716 1334.19 536.352 1375.78 620.229C1429.74 729.378 1489.99 749.014 1557.56 761.983L1557.21 762.832C1489.29 749.802 1428.7 730.105 1374.56 620.532C1333.23 537.079 1251.62 525.564 1172.63 514.413C1089.71 502.656 1011.42 491.626 987.443 398.961C981.514 376.113 979.16 351.205 979.16 326.357Z" fill="url(#paint115_linear_43_3)"/>
</g>
<g opacity="0.6">
<path d="M986.133 321.992C986.133 233.934 1015.08 145.754 1015.51 144.602L1016.74 144.784C1016.21 146.239 968.782 290.72 995.636 394.415C1019.44 486.473 1097.3 497.503 1179.78 509.139C1259.12 520.351 1341.16 531.987 1382.66 615.864C1436.63 725.013 1496.96 744.649 1564.45 757.618L1564.19 758.467C1496.27 745.437 1435.58 725.74 1381.44 616.167C1340.2 532.715 1258.51 521.2 1179.51 510.048C1096.6 498.291 1018.3 487.261 994.328 394.597C988.4 371.688 986.133 346.84 986.133 321.992Z" fill="url(#paint116_linear_43_3)"/>
</g>
<g opacity="0.5">
<path d="M993.02 317.629C993.02 229.57 1022.05 141.33 1022.4 140.239L1023.62 140.421C1023.19 141.875 975.669 286.357 1002.52 390.051C1026.33 482.11 1104.27 493.14 1186.75 504.776C1266.09 515.988 1348.05 527.563 1389.55 611.501C1443.52 720.65 1503.85 740.286 1571.42 753.255L1571.07 754.103C1503.15 741.073 1442.56 721.377 1388.33 611.804C1347.09 528.351 1265.48 516.836 1186.49 505.685C1103.57 493.928 1025.19 482.898 1001.22 390.233C995.374 367.325 993.02 342.477 993.02 317.629Z" fill="url(#paint117_linear_43_3)"/>
</g>
<g opacity="0.5">
<path d="M999.996 313.265C999.996 225.206 1028.94 136.966 1029.29 135.875L1030.6 136.057C1030.08 137.511 982.646 281.993 1009.41 385.687C1033.3 477.746 1111.16 488.776 1193.64 500.412C1272.98 511.624 1355.02 523.199 1396.52 607.137C1450.49 716.286 1510.83 735.922 1578.31 748.891L1577.96 749.74C1510.13 736.71 1449.45 716.952 1395.3 607.44C1354.06 523.987 1272.37 512.472 1193.38 501.321C1110.46 489.564 1032.17 478.473 1008.19 385.869C1002.26 362.961 999.996 338.113 999.996 313.265Z" fill="url(#paint118_linear_43_3)"/>
</g>
<g opacity="0.4">
<path d="M1006.89 308.902C1006.89 220.844 1035.93 132.603 1036.28 131.512L1037.5 131.694C1037.06 133.149 989.544 277.63 1016.4 381.325C1040.2 473.383 1118.15 484.413 1200.62 496.049C1279.88 507.261 1361.92 518.837 1403.42 602.774C1457.39 711.923 1517.73 731.559 1585.3 744.528L1584.95 745.377C1517.03 732.347 1456.43 712.59 1402.2 603.077C1360.96 519.624 1279.27 508.11 1200.36 496.958C1117.45 485.201 1039.07 474.11 1015.09 381.506C1009.16 358.598 1006.89 333.75 1006.89 308.902Z" fill="url(#paint119_linear_43_3)"/>
</g>
<g opacity="0.4">
<path d="M1013.78 304.539C1013.78 216.481 1042.81 128.24 1043.16 127.149L1044.47 127.331C1043.94 128.786 996.514 273.207 1023.28 376.962C1047.08 469.02 1125.03 480.05 1207.51 491.686C1286.85 502.898 1368.89 514.474 1410.39 598.411C1464.36 707.56 1524.61 727.135 1592.18 740.165L1591.83 741.014C1523.91 727.984 1463.32 708.227 1409.17 598.714C1367.85 515.262 1286.24 503.747 1207.25 492.535C1124.33 480.838 1046.04 469.747 1022.06 377.144C1016.13 354.235 1013.78 329.387 1013.78 304.539Z" fill="url(#paint120_linear_43_3)"/>
</g>
<g opacity="0.2">
<path d="M1020.75 300.176C1020.75 212.117 1049.7 123.877 1050.14 122.786L1051.36 122.968C1050.92 124.422 1003.4 268.843 1030.26 372.598C1054.06 464.657 1131.92 475.687 1214.4 487.323C1293.74 498.535 1375.78 510.11 1417.28 594.048C1471.25 703.197 1531.59 722.772 1599.16 735.741L1598.81 736.65C1530.89 723.56 1470.29 703.863 1416.06 594.351C1374.82 510.898 1293.13 499.383 1214.14 488.171C1131.22 476.475 1052.93 465.384 1028.95 372.719C1023.02 349.872 1020.75 325.024 1020.75 300.176Z" fill="url(#paint121_linear_43_3)"/>
</g>
<g opacity="0.2">
<path d="M1027.63 295.813C1027.63 207.754 1056.67 119.514 1057.01 118.423L1058.24 118.605C1057.8 120.059 1010.28 264.48 1037.14 368.235C1060.94 460.294 1138.88 471.263 1221.36 482.96C1300.7 494.172 1382.66 505.747 1424.16 589.685C1478.22 698.834 1538.46 718.409 1606.03 731.379L1605.69 732.288C1537.77 719.197 1477.17 699.5 1423.03 589.988C1381.7 506.535 1300.09 494.96 1221.1 483.809C1138.19 472.112 1059.8 461.021 1035.92 368.357C1029.99 345.509 1027.63 320.661 1027.63 295.813Z" fill="url(#paint122_linear_43_3)"/>
</g>
<g opacity="0.1">
<path d="M1034.61 291.448C1034.61 203.39 1063.55 115.149 1063.99 113.998L1065.21 114.24C1064.69 115.695 1017.26 260.116 1044.11 363.871C1067.91 455.929 1145.77 466.899 1228.25 478.595C1307.59 489.807 1389.63 501.383 1431.13 585.32C1485.1 694.469 1545.44 714.044 1612.92 727.014L1612.66 727.923C1544.74 714.832 1484.06 695.136 1429.91 585.623C1388.67 502.171 1306.98 490.595 1227.99 479.444C1145.07 467.747 1066.78 456.657 1042.8 363.992C1036.87 341.144 1034.61 316.296 1034.61 291.448Z" fill="url(#paint123_linear_43_3)"/>
</g>
<g opacity="0.1">
<path d="M1041.5 287.085C1041.5 198.966 1070.53 110.786 1070.88 109.635L1072.1 109.877C1071.66 111.332 1024.15 255.752 1051 359.508C1074.8 451.566 1152.75 462.535 1235.23 474.232C1314.48 485.444 1396.52 497.02 1438.02 580.957C1491.99 690.045 1552.33 709.681 1619.9 722.651L1619.55 723.499C1551.63 710.469 1491.03 690.773 1436.8 581.199C1395.56 497.807 1313.87 486.232 1234.96 475.081C1152.05 463.384 1073.67 452.293 1049.69 359.629C1043.85 336.781 1041.5 311.933 1041.5 287.085Z" fill="url(#paint124_linear_43_3)"/>
</g>
<path style="mix-blend-mode:color-dodge" d="M945.422 742.287C929.293 749.56 909.763 748.53 901.742 739.984C893.808 731.439 900.434 718.591 916.476 711.318C932.606 704.046 952.136 705.076 960.157 713.621C968.091 722.167 961.465 735.015 945.422 742.287Z" fill="url(#paint125_radial_43_3)"/>
<path style="mix-blend-mode:color-dodge" d="M963.554 708.591C959.66 710.288 955.736 712.026 951.784 713.803C928.766 724.227 908.452 733.924 894.938 740.954L898.687 745.015C913.421 739.318 934.521 730.409 957.538 719.985C961.491 718.207 965.385 716.429 969.221 714.652L963.554 708.591Z" fill="url(#paint126_radial_43_3)"/>
<path style="mix-blend-mode:color-dodge" d="M971.844 735.075C967.659 733.823 963.387 732.55 959.028 731.257C933.656 723.924 910.639 717.743 894.683 713.985L891.98 718.47C907.151 723.682 929.558 730.712 954.93 738.045C959.289 739.338 963.59 740.57 967.834 741.742L971.844 735.075Z" fill="url(#paint127_radial_43_3)"/>
</g>
<defs>
<linearGradient id="paint0_linear_43_3" x1="371.281" y1="244.479" x2="1694" y2="244.479" gradientUnits="userSpaceOnUse">
<stop stop-color="#FCC342"/>
<stop offset="0.186" stop-color="#9E5313"/>
<stop offset="0.417" stop-color="#E7AA39"/>
<stop offset="0.69" stop-color="#F7FC97"/>
<stop offset="0.938" stop-color="#E7AA39"/>
</linearGradient>
<linearGradient id="paint1_linear_43_3" x1="34.5795" y1="438.113" x2="1357.39" y2="438.113" gradientUnits="userSpaceOnUse">
<stop stop-color="#FCC342"/>
<stop offset="0.186" stop-color="#9E5313"/>
<stop offset="0.417" stop-color="#E7AA39"/>
<stop offset="0.69" stop-color="#F7FC97"/>
<stop offset="0.938" stop-color="#E7AA39"/>
</linearGradient>
<linearGradient id="paint2_linear_43_3" x1="45.7305" y1="216.299" x2="740.353" y2="216.299" gradientUnits="userSpaceOnUse">
<stop stop-color="#FCC342"/>
<stop offset="0.186" stop-color="#9E5313"/>
<stop offset="0.417" stop-color="#E7AA39"/>
<stop offset="0.69" stop-color="#F7FC97"/>
<stop offset="0.938" stop-color="#E7AA39"/>
</linearGradient>
<linearGradient id="paint3_linear_43_3" x1="43.9805" y1="217.147" x2="730.145" y2="217.147" gradientUnits="userSpaceOnUse">
<stop stop-color="#FCC342"/>
<stop offset="0.186" stop-color="#9E5313"/>
<stop offset="0.417" stop-color="#E7AA39"/>
<stop offset="0.69" stop-color="#F7FC97"/>
<stop offset="0.938" stop-color="#E7AA39"/>
</linearGradient>
<linearGradient id="paint4_linear_43_3" x1="42.2422" y1="218.056" x2="719.95" y2="218.056" gradientUnits="userSpaceOnUse">
<stop stop-color="#FCC342"/>
<stop offset="0.186" stop-color="#9E5313"/>
<stop offset="0.417" stop-color="#E7AA39"/>
<stop offset="0.69" stop-color="#F7FC97"/>
<stop offset="0.938" stop-color="#E7AA39"/>
</linearGradient>
<linearGradient id="paint5_linear_43_3" x1="40.582" y1="218.904" x2="709.658" y2="218.904" gradientUnits="userSpaceOnUse">
<stop stop-color="#FCC342"/>
<stop offset="0.186" stop-color="#9E5313"/>
<stop offset="0.417" stop-color="#E7AA39"/>
<stop offset="0.69" stop-color="#F7FC97"/>
<stop offset="0.938" stop-color="#E7AA39"/>
</linearGradient>
<linearGradient id="paint6_linear_43_3" x1="38.8398" y1="219.753" x2="699.459" y2="219.753" gradientUnits="userSpaceOnUse">
<stop stop-color="#FCC342"/>
<stop offset="0.186" stop-color="#9E5313"/>
<stop offset="0.417" stop-color="#E7AA39"/>
<stop offset="0.69" stop-color="#F7FC97"/>
<stop offset="0.938" stop-color="#E7AA39"/>
</linearGradient>
<linearGradient id="paint7_linear_43_3" x1="37.0938" y1="220.6" x2="689.168" y2="220.6" gradientUnits="userSpaceOnUse">
<stop stop-color="#FCC342"/>
<stop offset="0.186" stop-color="#9E5313"/>
<stop offset="0.417" stop-color="#E7AA39"/>
<stop offset="0.69" stop-color="#F7FC97"/>
<stop offset="0.938" stop-color="#E7AA39"/>
</linearGradient>
<linearGradient id="paint8_linear_43_3" x1="35.3516" y1="221.449" x2="678.969" y2="221.449" gradientUnits="userSpaceOnUse">
<stop stop-color="#FCC342"/>
<stop offset="0.186" stop-color="#9E5313"/>
<stop offset="0.417" stop-color="#E7AA39"/>
<stop offset="0.69" stop-color="#F7FC97"/>
<stop offset="0.938" stop-color="#E7AA39"/>
</linearGradient>
<linearGradient id="paint9_linear_43_3" x1="33.6914" y1="222.299" x2="668.852" y2="222.299" gradientUnits="userSpaceOnUse">
<stop stop-color="#FCC342"/>
<stop offset="0.186" stop-color="#9E5313"/>
<stop offset="0.417" stop-color="#E7AA39"/>
<stop offset="0.69" stop-color="#F7FC97"/>
<stop offset="0.938" stop-color="#E7AA39"/>
</linearGradient>
<linearGradient id="paint10_linear_43_3" x1="31.9492" y1="223.145" x2="658.74" y2="223.145" gradientUnits="userSpaceOnUse">
<stop stop-color="#FCC342"/>
<stop offset="0.186" stop-color="#9E5313"/>
<stop offset="0.417" stop-color="#E7AA39"/>
<stop offset="0.69" stop-color="#F7FC97"/>
<stop offset="0.938" stop-color="#E7AA39"/>
</linearGradient>
<linearGradient id="paint11_linear_43_3" x1="30.2109" y1="223.995" x2="648.631" y2="223.995" gradientUnits="userSpaceOnUse">
<stop stop-color="#FCC342"/>
<stop offset="0.186" stop-color="#9E5313"/>
<stop offset="0.417" stop-color="#E7AA39"/>
<stop offset="0.69" stop-color="#F7FC97"/>
<stop offset="0.938" stop-color="#E7AA39"/>
</linearGradient>
<linearGradient id="paint12_linear_43_3" x1="28.4609" y1="224.844" x2="638.598" y2="224.844" gradientUnits="userSpaceOnUse">
<stop stop-color="#FCC342"/>
<stop offset="0.186" stop-color="#9E5313"/>
<stop offset="0.417" stop-color="#E7AA39"/>
<stop offset="0.69" stop-color="#F7FC97"/>
<stop offset="0.938" stop-color="#E7AA39"/>
</linearGradient>
<linearGradient id="paint13_linear_43_3" x1="26.8086" y1="225.692" x2="628.663" y2="225.692" gradientUnits="userSpaceOnUse">
<stop stop-color="#FCC342"/>
<stop offset="0.186" stop-color="#9E5313"/>
<stop offset="0.417" stop-color="#E7AA39"/>
<stop offset="0.69" stop-color="#F7FC97"/>
<stop offset="0.938" stop-color="#E7AA39"/>
</linearGradient>
<linearGradient id="paint14_linear_43_3" x1="25.0625" y1="226.541" x2="618.809" y2="226.541" gradientUnits="userSpaceOnUse">
<stop stop-color="#FCC342"/>
<stop offset="0.186" stop-color="#9E5313"/>
<stop offset="0.417" stop-color="#E7AA39"/>
<stop offset="0.69" stop-color="#F7FC97"/>
<stop offset="0.938" stop-color="#E7AA39"/>
</linearGradient>
<linearGradient id="paint15_linear_43_3" x1="23.3203" y1="227.389" x2="609.045" y2="227.389" gradientUnits="userSpaceOnUse">
<stop stop-color="#FCC342"/>
<stop offset="0.186" stop-color="#9E5313"/>
<stop offset="0.417" stop-color="#E7AA39"/>
<stop offset="0.69" stop-color="#F7FC97"/>
<stop offset="0.938" stop-color="#E7AA39"/>
</linearGradient>
<linearGradient id="paint16_linear_43_3" x1="21.6641" y1="228.238" x2="599.542" y2="228.238" gradientUnits="userSpaceOnUse">
<stop stop-color="#FCC342"/>
<stop offset="0.186" stop-color="#9E5313"/>
<stop offset="0.417" stop-color="#E7AA39"/>
<stop offset="0.69" stop-color="#F7FC97"/>
<stop offset="0.938" stop-color="#E7AA39"/>
</linearGradient>
<linearGradient id="paint17_linear_43_3" x1="19.9219" y1="229.086" x2="590.215" y2="229.086" gradientUnits="userSpaceOnUse">
<stop stop-color="#FCC342"/>
<stop offset="0.186" stop-color="#9E5313"/>
<stop offset="0.417" stop-color="#E7AA39"/>
<stop offset="0.69" stop-color="#F7FC97"/>
<stop offset="0.938" stop-color="#E7AA39"/>
</linearGradient>
<linearGradient id="paint18_linear_43_3" x1="18.1719" y1="229.934" x2="581.315" y2="229.934" gradientUnits="userSpaceOnUse">
<stop stop-color="#FCC342"/>
<stop offset="0.186" stop-color="#9E5313"/>
<stop offset="0.417" stop-color="#E7AA39"/>
<stop offset="0.69" stop-color="#F7FC97"/>
<stop offset="0.938" stop-color="#E7AA39"/>
</linearGradient>
<linearGradient id="paint19_linear_43_3" x1="16.4336" y1="230.843" x2="572.777" y2="230.843" gradientUnits="userSpaceOnUse">
<stop stop-color="#FCC342"/>
<stop offset="0.186" stop-color="#9E5313"/>
<stop offset="0.417" stop-color="#E7AA39"/>
<stop offset="0.69" stop-color="#F7FC97"/>
<stop offset="0.938" stop-color="#E7AA39"/>
</linearGradient>
<linearGradient id="paint20_linear_43_3" x1="14.7695" y1="231.692" x2="564.661" y2="231.692" gradientUnits="userSpaceOnUse">
<stop stop-color="#FCC342"/>
<stop offset="0.186" stop-color="#9E5313"/>
<stop offset="0.417" stop-color="#E7AA39"/>
<stop offset="0.69" stop-color="#F7FC97"/>
<stop offset="0.938" stop-color="#E7AA39"/>
</linearGradient>
<linearGradient id="paint21_linear_43_3" x1="13.0352" y1="232.541" x2="556.997" y2="232.541" gradientUnits="userSpaceOnUse">
<stop stop-color="#FCC342"/>
<stop offset="0.186" stop-color="#9E5313"/>
<stop offset="0.417" stop-color="#E7AA39"/>
<stop offset="0.69" stop-color="#F7FC97"/>
<stop offset="0.938" stop-color="#E7AA39"/>
</linearGradient>
<linearGradient id="paint22_linear_43_3" x1="11.2891" y1="233.39" x2="549.846" y2="233.39" gradientUnits="userSpaceOnUse">
<stop stop-color="#FCC342"/>
<stop offset="0.186" stop-color="#9E5313"/>
<stop offset="0.417" stop-color="#E7AA39"/>
<stop offset="0.69" stop-color="#F7FC97"/>
<stop offset="0.938" stop-color="#E7AA39"/>
</linearGradient>
<linearGradient id="paint23_linear_43_3" x1="9.54297" y1="234.238" x2="543.043" y2="234.238" gradientUnits="userSpaceOnUse">
<stop stop-color="#FCC342"/>
<stop offset="0.186" stop-color="#9E5313"/>
<stop offset="0.417" stop-color="#E7AA39"/>
<stop offset="0.69" stop-color="#F7FC97"/>
<stop offset="0.938" stop-color="#E7AA39"/>
</linearGradient>
<linearGradient id="paint24_linear_43_3" x1="7.88281" y1="235.086" x2="536.587" y2="235.086" gradientUnits="userSpaceOnUse">
<stop stop-color="#FCC342"/>
<stop offset="0.186" stop-color="#9E5313"/>
<stop offset="0.417" stop-color="#E7AA39"/>
<stop offset="0.69" stop-color="#F7FC97"/>
<stop offset="0.938" stop-color="#E7AA39"/>
</linearGradient>
<linearGradient id="paint25_linear_43_3" x1="6.14062" y1="235.934" x2="530.573" y2="235.934" gradientUnits="userSpaceOnUse">
<stop stop-color="#FCC342"/>
<stop offset="0.186" stop-color="#9E5313"/>
<stop offset="0.417" stop-color="#E7AA39"/>
<stop offset="0.69" stop-color="#F7FC97"/>
<stop offset="0.938" stop-color="#E7AA39"/>
</linearGradient>
<linearGradient id="paint26_linear_43_3" x1="4.40234" y1="236.783" x2="524.824" y2="236.783" gradientUnits="userSpaceOnUse">
<stop stop-color="#FCC342"/>
<stop offset="0.186" stop-color="#9E5313"/>
<stop offset="0.417" stop-color="#E7AA39"/>
<stop offset="0.69" stop-color="#F7FC97"/>
<stop offset="0.938" stop-color="#E7AA39"/>
</linearGradient>
<linearGradient id="paint27_linear_43_3" x1="2.74609" y1="237.631" x2="519.244" y2="237.631" gradientUnits="userSpaceOnUse">
<stop stop-color="#FCC342"/>
<stop offset="0.186" stop-color="#9E5313"/>
<stop offset="0.417" stop-color="#E7AA39"/>
<stop offset="0.69" stop-color="#F7FC97"/>
<stop offset="0.938" stop-color="#E7AA39"/>
</linearGradient>
<linearGradient id="paint28_linear_43_3" x1="1" y1="238.479" x2="514.011" y2="238.479" gradientUnits="userSpaceOnUse">
<stop stop-color="#FCC342"/>
<stop offset="0.186" stop-color="#9E5313"/>
<stop offset="0.417" stop-color="#E7AA39"/>
<stop offset="0.69" stop-color="#F7FC97"/>
<stop offset="0.938" stop-color="#E7AA39"/>
</linearGradient>
<linearGradient id="paint29_linear_43_3" x1="952.137" y1="697.014" x2="1920" y2="697.014" gradientUnits="userSpaceOnUse">
<stop stop-color="#FCC342"/>
<stop offset="0.186" stop-color="#9E5313"/>
<stop offset="0.417" stop-color="#E7AA39"/>
<stop offset="0.69" stop-color="#F7FC97"/>
<stop offset="0.938" stop-color="#E7AA39"/>
</linearGradient>
<linearGradient id="paint30_linear_43_3" x1="942.019" y1="699.741" x2="1914.16" y2="699.741" gradientUnits="userSpaceOnUse">
<stop stop-color="#FCC342"/>
<stop offset="0.186" stop-color="#9E5313"/>
<stop offset="0.417" stop-color="#E7AA39"/>
<stop offset="0.69" stop-color="#F7FC97"/>
<stop offset="0.938" stop-color="#E7AA39"/>
</linearGradient>
<linearGradient id="paint31_linear_43_3" x1="931.829" y1="702.469" x2="1908.33" y2="702.469" gradientUnits="userSpaceOnUse">
<stop stop-color="#FCC342"/>
<stop offset="0.186" stop-color="#9E5313"/>
<stop offset="0.417" stop-color="#E7AA39"/>
<stop offset="0.69" stop-color="#F7FC97"/>
<stop offset="0.938" stop-color="#E7AA39"/>
</linearGradient>
<linearGradient id="paint32_linear_43_3" x1="921.535" y1="705.197" x2="1902.48" y2="705.197" gradientUnits="userSpaceOnUse">
<stop stop-color="#FCC342"/>
<stop offset="0.186" stop-color="#9E5313"/>
<stop offset="0.417" stop-color="#E7AA39"/>
<stop offset="0.69" stop-color="#F7FC97"/>
<stop offset="0.938" stop-color="#E7AA39"/>
</linearGradient>
<linearGradient id="paint33_linear_43_3" x1="911.334" y1="707.923" x2="1896.64" y2="707.923" gradientUnits="userSpaceOnUse">
<stop stop-color="#FCC342"/>
<stop offset="0.186" stop-color="#9E5313"/>
<stop offset="0.417" stop-color="#E7AA39"/>
<stop offset="0.69" stop-color="#F7FC97"/>
<stop offset="0.938" stop-color="#E7AA39"/>
</linearGradient>
<linearGradient id="paint34_linear_43_3" x1="901.049" y1="710.65" x2="1890.8" y2="710.65" gradientUnits="userSpaceOnUse">
<stop stop-color="#FCC342"/>
<stop offset="0.186" stop-color="#9E5313"/>
<stop offset="0.417" stop-color="#E7AA39"/>
<stop offset="0.69" stop-color="#F7FC97"/>
<stop offset="0.938" stop-color="#E7AA39"/>
</linearGradient>
<linearGradient id="paint35_linear_43_3" x1="890.841" y1="713.438" x2="1884.86" y2="713.438" gradientUnits="userSpaceOnUse">
<stop stop-color="#FCC342"/>
<stop offset="0.186" stop-color="#9E5313"/>
<stop offset="0.417" stop-color="#E7AA39"/>
<stop offset="0.69" stop-color="#F7FC97"/>
<stop offset="0.938" stop-color="#E7AA39"/>
</linearGradient>
<linearGradient id="paint36_linear_43_3" x1="880.558" y1="716.166" x2="1879.03" y2="716.166" gradientUnits="userSpaceOnUse">
<stop stop-color="#FCC342"/>
<stop offset="0.186" stop-color="#9E5313"/>
<stop offset="0.417" stop-color="#E7AA39"/>
<stop offset="0.69" stop-color="#F7FC97"/>
<stop offset="0.938" stop-color="#E7AA39"/>
</linearGradient>
<linearGradient id="paint37_linear_43_3" x1="870.266" y1="718.893" x2="1873.18" y2="718.893" gradientUnits="userSpaceOnUse">
<stop stop-color="#FCC342"/>
<stop offset="0.186" stop-color="#9E5313"/>
<stop offset="0.417" stop-color="#E7AA39"/>
<stop offset="0.69" stop-color="#F7FC97"/>
<stop offset="0.938" stop-color="#E7AA39"/>
</linearGradient>
<linearGradient id="paint38_linear_43_3" x1="849.69" y1="724.287" x2="1861.5" y2="724.287" gradientUnits="userSpaceOnUse">
<stop stop-color="#FCC342"/>
<stop offset="0.186" stop-color="#9E5313"/>
<stop offset="0.417" stop-color="#E7AA39"/>
<stop offset="0.69" stop-color="#F7FC97"/>
<stop offset="0.938" stop-color="#E7AA39"/>
</linearGradient>
<linearGradient id="paint39_linear_43_3" x1="839.411" y1="726.953" x2="1855.67" y2="726.953" gradientUnits="userSpaceOnUse">
<stop stop-color="#FCC342"/>
<stop offset="0.186" stop-color="#9E5313"/>
<stop offset="0.417" stop-color="#E7AA39"/>
<stop offset="0.69" stop-color="#F7FC97"/>
<stop offset="0.938" stop-color="#E7AA39"/>
</linearGradient>
<linearGradient id="paint40_linear_43_3" x1="829.11" y1="729.62" x2="1849.81" y2="729.62" gradientUnits="userSpaceOnUse">
<stop stop-color="#FCC342"/>
<stop offset="0.186" stop-color="#9E5313"/>
<stop offset="0.417" stop-color="#E7AA39"/>
<stop offset="0.69" stop-color="#F7FC97"/>
<stop offset="0.938" stop-color="#E7AA39"/>
</linearGradient>
<linearGradient id="paint41_linear_43_3" x1="818.827" y1="732.286" x2="1843.98" y2="732.286" gradientUnits="userSpaceOnUse">
<stop stop-color="#FCC342"/>
<stop offset="0.186" stop-color="#9E5313"/>
<stop offset="0.417" stop-color="#E7AA39"/>
<stop offset="0.69" stop-color="#F7FC97"/>
<stop offset="0.938" stop-color="#E7AA39"/>
</linearGradient>
<linearGradient id="paint42_linear_43_3" x1="808.535" y1="734.953" x2="1838.13" y2="734.953" gradientUnits="userSpaceOnUse">
<stop stop-color="#FCC342"/>
<stop offset="0.186" stop-color="#9E5313"/>
<stop offset="0.417" stop-color="#E7AA39"/>
<stop offset="0.69" stop-color="#F7FC97"/>
<stop offset="0.938" stop-color="#E7AA39"/>
</linearGradient>
<linearGradient id="paint43_linear_43_3" x1="798.169" y1="737.618" x2="1832.3" y2="737.618" gradientUnits="userSpaceOnUse">
<stop stop-color="#FCC342"/>
<stop offset="0.186" stop-color="#9E5313"/>
<stop offset="0.417" stop-color="#E7AA39"/>
<stop offset="0.69" stop-color="#F7FC97"/>
<stop offset="0.938" stop-color="#E7AA39"/>
</linearGradient>
<linearGradient id="paint44_linear_43_3" x1="787.878" y1="740.287" x2="1826.45" y2="740.287" gradientUnits="userSpaceOnUse">
<stop stop-color="#FCC342"/>
<stop offset="0.186" stop-color="#9E5313"/>
<stop offset="0.417" stop-color="#E7AA39"/>
<stop offset="0.69" stop-color="#F7FC97"/>
<stop offset="0.938" stop-color="#E7AA39"/>
</linearGradient>
<linearGradient id="paint45_linear_43_3" x1="777.588" y1="743.013" x2="1820.61" y2="743.013" gradientUnits="userSpaceOnUse">
<stop stop-color="#FCC342"/>
<stop offset="0.186" stop-color="#9E5313"/>
<stop offset="0.417" stop-color="#E7AA39"/>
<stop offset="0.69" stop-color="#F7FC97"/>
<stop offset="0.938" stop-color="#E7AA39"/>
</linearGradient>
<linearGradient id="paint46_linear_43_3" x1="767.217" y1="745.68" x2="1814.77" y2="745.68" gradientUnits="userSpaceOnUse">
<stop stop-color="#FCC342"/>
<stop offset="0.186" stop-color="#9E5313"/>
<stop offset="0.417" stop-color="#E7AA39"/>
<stop offset="0.69" stop-color="#F7FC97"/>
<stop offset="0.938" stop-color="#E7AA39"/>
</linearGradient>
<linearGradient id="paint47_linear_43_3" x1="756.837" y1="748.346" x2="1808.93" y2="748.346" gradientUnits="userSpaceOnUse">
<stop stop-color="#FCC342"/>
<stop offset="0.186" stop-color="#9E5313"/>
<stop offset="0.417" stop-color="#E7AA39"/>
<stop offset="0.69" stop-color="#F7FC97"/>
<stop offset="0.938" stop-color="#E7AA39"/>
</linearGradient>
<linearGradient id="paint48_linear_43_3" x1="746.555" y1="750.893" x2="1803.09" y2="750.893" gradientUnits="userSpaceOnUse">
<stop stop-color="#FCC342"/>
<stop offset="0.186" stop-color="#9E5313"/>
<stop offset="0.417" stop-color="#E7AA39"/>
<stop offset="0.69" stop-color="#F7FC97"/>
<stop offset="0.938" stop-color="#E7AA39"/>
</linearGradient>
<linearGradient id="paint49_linear_43_3" x1="736.176" y1="753.498" x2="1797.25" y2="753.498" gradientUnits="userSpaceOnUse">
<stop stop-color="#FCC342"/>
<stop offset="0.186" stop-color="#9E5313"/>
<stop offset="0.417" stop-color="#E7AA39"/>
<stop offset="0.69" stop-color="#F7FC97"/>
<stop offset="0.938" stop-color="#E7AA39"/>
</linearGradient>
<linearGradient id="paint50_linear_43_3" x1="725.795" y1="756.044" x2="1791.4" y2="756.044" gradientUnits="userSpaceOnUse">
<stop stop-color="#FCC342"/>
<stop offset="0.186" stop-color="#9E5313"/>
<stop offset="0.417" stop-color="#E7AA39"/>
<stop offset="0.69" stop-color="#F7FC97"/>
<stop offset="0.938" stop-color="#E7AA39"/>
</linearGradient>
<linearGradient id="paint51_linear_43_3" x1="715.425" y1="758.65" x2="1785.56" y2="758.65" gradientUnits="userSpaceOnUse">
<stop stop-color="#FCC342"/>
<stop offset="0.186" stop-color="#9E5313"/>
<stop offset="0.417" stop-color="#E7AA39"/>
<stop offset="0.69" stop-color="#F7FC97"/>
<stop offset="0.938" stop-color="#E7AA39"/>
</linearGradient>
<linearGradient id="paint52_linear_43_3" x1="705.137" y1="761.194" x2="1779.72" y2="761.194" gradientUnits="userSpaceOnUse">
<stop stop-color="#FCC342"/>
<stop offset="0.186" stop-color="#9E5313"/>
<stop offset="0.417" stop-color="#E7AA39"/>
<stop offset="0.69" stop-color="#F7FC97"/>
<stop offset="0.938" stop-color="#E7AA39"/>
</linearGradient>
<linearGradient id="paint53_linear_43_3" x1="694.765" y1="763.679" x2="1773.88" y2="763.679" gradientUnits="userSpaceOnUse">
<stop stop-color="#FCC342"/>
<stop offset="0.186" stop-color="#9E5313"/>
<stop offset="0.417" stop-color="#E7AA39"/>
<stop offset="0.69" stop-color="#F7FC97"/>
<stop offset="0.938" stop-color="#E7AA39"/>
</linearGradient>
<linearGradient id="paint54_linear_43_3" x1="684.385" y1="766.103" x2="1768.04" y2="766.103" gradientUnits="userSpaceOnUse">
<stop stop-color="#FCC342"/>
<stop offset="0.186" stop-color="#9E5313"/>
<stop offset="0.417" stop-color="#E7AA39"/>
<stop offset="0.69" stop-color="#F7FC97"/>
<stop offset="0.938" stop-color="#E7AA39"/>
</linearGradient>
<linearGradient id="paint55_linear_43_3" x1="744.357" y1="1196.4" x2="166.043" y2="1196.4" gradientUnits="userSpaceOnUse">
<stop stop-color="#FCC342"/>
<stop offset="0.186" stop-color="#9E5313"/>
<stop offset="0.417" stop-color="#E7AA39"/>
<stop offset="0.69" stop-color="#F7FC97"/>
<stop offset="0.938" stop-color="#E7AA39"/>
</linearGradient>
<linearGradient id="paint56_linear_43_3" x1="737.476" y1="1200.82" x2="159.074" y2="1200.82" gradientUnits="userSpaceOnUse">
<stop stop-color="#FCC342"/>
<stop offset="0.186" stop-color="#9E5313"/>
<stop offset="0.417" stop-color="#E7AA39"/>
<stop offset="0.69" stop-color="#F7FC97"/>
<stop offset="0.938" stop-color="#E7AA39"/>
</linearGradient>
<linearGradient id="paint57_linear_43_3" x1="730.581" y1="1205.19" x2="152.18" y2="1205.19" gradientUnits="userSpaceOnUse">
<stop stop-color="#FCC342"/>
<stop offset="0.186" stop-color="#9E5313"/>
<stop offset="0.417" stop-color="#E7AA39"/>
<stop offset="0.69" stop-color="#F7FC97"/>
<stop offset="0.938" stop-color="#E7AA39"/>
</linearGradient>
<linearGradient id="paint58_linear_43_3" x1="723.601" y1="1209.55" x2="145.199" y2="1209.55" gradientUnits="userSpaceOnUse">
<stop stop-color="#FCC342"/>
<stop offset="0.186" stop-color="#9E5313"/>
<stop offset="0.417" stop-color="#E7AA39"/>
<stop offset="0.69" stop-color="#F7FC97"/>
<stop offset="0.938" stop-color="#E7AA39"/>
</linearGradient>
<linearGradient id="paint59_linear_43_3" x1="716.718" y1="1213.91" x2="138.316" y2="1213.91" gradientUnits="userSpaceOnUse">
<stop stop-color="#FCC342"/>
<stop offset="0.186" stop-color="#9E5313"/>
<stop offset="0.417" stop-color="#E7AA39"/>
<stop offset="0.69" stop-color="#F7FC97"/>
<stop offset="0.938" stop-color="#E7AA39"/>
</linearGradient>
<linearGradient id="paint60_linear_43_3" x1="709.749" y1="1218.27" x2="131.348" y2="1218.27" gradientUnits="userSpaceOnUse">
<stop stop-color="#FCC342"/>
<stop offset="0.186" stop-color="#9E5313"/>
<stop offset="0.417" stop-color="#E7AA39"/>
<stop offset="0.69" stop-color="#F7FC97"/>
<stop offset="0.938" stop-color="#E7AA39"/>
</linearGradient>
<linearGradient id="paint61_linear_43_3" x1="702.862" y1="1222.64" x2="124.461" y2="1222.64" gradientUnits="userSpaceOnUse">
<stop stop-color="#FCC342"/>
<stop offset="0.186" stop-color="#9E5313"/>
<stop offset="0.417" stop-color="#E7AA39"/>
<stop offset="0.69" stop-color="#F7FC97"/>
<stop offset="0.938" stop-color="#E7AA39"/>
</linearGradient>
<linearGradient id="paint62_linear_43_3" x1="695.881" y1="1227" x2="117.566" y2="1227" gradientUnits="userSpaceOnUse">
<stop stop-color="#FCC342"/>
<stop offset="0.186" stop-color="#9E5313"/>
<stop offset="0.417" stop-color="#E7AA39"/>
<stop offset="0.69" stop-color="#F7FC97"/>
<stop offset="0.938" stop-color="#E7AA39"/>
</linearGradient>
<linearGradient id="paint63_linear_43_3" x1="688.991" y1="1231.37" x2="110.59" y2="1231.37" gradientUnits="userSpaceOnUse">
<stop stop-color="#FCC342"/>
<stop offset="0.186" stop-color="#9E5313"/>
<stop offset="0.417" stop-color="#E7AA39"/>
<stop offset="0.69" stop-color="#F7FC97"/>
<stop offset="0.938" stop-color="#E7AA39"/>
</linearGradient>
<linearGradient id="paint64_linear_43_3" x1="682.104" y1="1235.73" x2="103.703" y2="1235.73" gradientUnits="userSpaceOnUse">
<stop stop-color="#FCC342"/>
<stop offset="0.186" stop-color="#9E5313"/>
<stop offset="0.417" stop-color="#E7AA39"/>
<stop offset="0.69" stop-color="#F7FC97"/>
<stop offset="0.938" stop-color="#E7AA39"/>
</linearGradient>
<linearGradient id="paint65_linear_43_3" x1="675.124" y1="1240.09" x2="96.7227" y2="1240.09" gradientUnits="userSpaceOnUse">
<stop stop-color="#FCC342"/>
<stop offset="0.186" stop-color="#9E5313"/>
<stop offset="0.417" stop-color="#E7AA39"/>
<stop offset="0.69" stop-color="#F7FC97"/>
<stop offset="0.938" stop-color="#E7AA39"/>
</linearGradient>
<linearGradient id="paint66_linear_43_3" x1="668.245" y1="1244.45" x2="89.8438" y2="1244.45" gradientUnits="userSpaceOnUse">
<stop stop-color="#FCC342"/>
<stop offset="0.186" stop-color="#9E5313"/>
<stop offset="0.417" stop-color="#E7AA39"/>
<stop offset="0.69" stop-color="#F7FC97"/>
<stop offset="0.938" stop-color="#E7AA39"/>
</linearGradient>
<linearGradient id="paint67_linear_43_3" x1="661.342" y1="1252.94" x2="83.0273" y2="1252.94" gradientUnits="userSpaceOnUse">
<stop stop-color="#FCC342"/>
<stop offset="0.186" stop-color="#9E5313"/>
<stop offset="0.417" stop-color="#E7AA39"/>
<stop offset="0.69" stop-color="#F7FC97"/>
<stop offset="0.938" stop-color="#E7AA39"/>
</linearGradient>
<linearGradient id="paint68_linear_43_3" x1="654.464" y1="1257.31" x2="76.0625" y2="1257.31" gradientUnits="userSpaceOnUse">
<stop stop-color="#FCC342"/>
<stop offset="0.186" stop-color="#9E5313"/>
<stop offset="0.417" stop-color="#E7AA39"/>
<stop offset="0.69" stop-color="#F7FC97"/>
<stop offset="0.938" stop-color="#E7AA39"/>
</linearGradient>
<linearGradient id="paint69_linear_43_3" x1="647.486" y1="1261.73" x2="69.1719" y2="1261.73" gradientUnits="userSpaceOnUse">
<stop stop-color="#FCC342"/>
<stop offset="0.186" stop-color="#9E5313"/>
<stop offset="0.417" stop-color="#E7AA39"/>
<stop offset="0.69" stop-color="#F7FC97"/>
<stop offset="0.938" stop-color="#E7AA39"/>
</linearGradient>
<linearGradient id="paint70_linear_43_3" x1="640.589" y1="1266.09" x2="62.1875" y2="1266.09" gradientUnits="userSpaceOnUse">
<stop stop-color="#FCC342"/>
<stop offset="0.186" stop-color="#9E5313"/>
<stop offset="0.417" stop-color="#E7AA39"/>
<stop offset="0.69" stop-color="#F7FC97"/>
<stop offset="0.938" stop-color="#E7AA39"/>
</linearGradient>
<linearGradient id="paint71_linear_43_3" x1="633.706" y1="1270.46" x2="55.3047" y2="1270.46" gradientUnits="userSpaceOnUse">
<stop stop-color="#FCC342"/>
<stop offset="0.186" stop-color="#9E5313"/>
<stop offset="0.417" stop-color="#E7AA39"/>
<stop offset="0.69" stop-color="#F7FC97"/>
<stop offset="0.938" stop-color="#E7AA39"/>
</linearGradient>
<linearGradient id="paint72_linear_43_3" x1="626.741" y1="1274.82" x2="48.3398" y2="1274.82" gradientUnits="userSpaceOnUse">
<stop stop-color="#FCC342"/>
<stop offset="0.186" stop-color="#9E5313"/>
<stop offset="0.417" stop-color="#E7AA39"/>
<stop offset="0.69" stop-color="#F7FC97"/>
<stop offset="0.938" stop-color="#E7AA39"/>
</linearGradient>
<linearGradient id="paint73_linear_43_3" x1="619.847" y1="1279.18" x2="41.4453" y2="1279.18" gradientUnits="userSpaceOnUse">
<stop stop-color="#FCC342"/>
<stop offset="0.186" stop-color="#9E5313"/>
<stop offset="0.417" stop-color="#E7AA39"/>
<stop offset="0.69" stop-color="#F7FC97"/>
<stop offset="0.938" stop-color="#E7AA39"/>
</linearGradient>
<linearGradient id="paint74_linear_43_3" x1="605.983" y1="1287.91" x2="27.582" y2="1287.91" gradientUnits="userSpaceOnUse">
<stop stop-color="#FCC342"/>
<stop offset="0.186" stop-color="#9E5313"/>
<stop offset="0.417" stop-color="#E7AA39"/>
<stop offset="0.69" stop-color="#F7FC97"/>
<stop offset="0.938" stop-color="#E7AA39"/>
</linearGradient>
<linearGradient id="paint75_linear_43_3" x1="599.093" y1="1292.27" x2="20.6914" y2="1292.27" gradientUnits="userSpaceOnUse">
<stop stop-color="#FCC342"/>
<stop offset="0.186" stop-color="#9E5313"/>
<stop offset="0.417" stop-color="#E7AA39"/>
<stop offset="0.69" stop-color="#F7FC97"/>
<stop offset="0.938" stop-color="#E7AA39"/>
</linearGradient>
<linearGradient id="paint76_linear_43_3" x1="592.116" y1="1296.64" x2="13.7148" y2="1296.64" gradientUnits="userSpaceOnUse">
<stop stop-color="#FCC342"/>
<stop offset="0.186" stop-color="#9E5313"/>
<stop offset="0.417" stop-color="#E7AA39"/>
<stop offset="0.69" stop-color="#F7FC97"/>
<stop offset="0.938" stop-color="#E7AA39"/>
</linearGradient>
<linearGradient id="paint77_linear_43_3" x1="585.229" y1="1301" x2="6.82812" y2="1301" gradientUnits="userSpaceOnUse">
<stop stop-color="#FCC342"/>
<stop offset="0.186" stop-color="#9E5313"/>
<stop offset="0.417" stop-color="#E7AA39"/>
<stop offset="0.69" stop-color="#F7FC97"/>
<stop offset="0.938" stop-color="#E7AA39"/>
</linearGradient>
<linearGradient id="paint78_linear_43_3" x1="820.819" y1="1143.31" x2="242.418" y2="1143.31" gradientUnits="userSpaceOnUse">
<stop stop-color="#FCC342"/>
<stop offset="0.186" stop-color="#9E5313"/>
<stop offset="0.417" stop-color="#E7AA39"/>
<stop offset="0.69" stop-color="#F7FC97"/>
<stop offset="0.938" stop-color="#E7AA39"/>
</linearGradient>
<linearGradient id="paint79_linear_43_3" x1="806.956" y1="1152.03" x2="228.555" y2="1152.03" gradientUnits="userSpaceOnUse">
<stop stop-color="#FCC342"/>
<stop offset="0.186" stop-color="#9E5313"/>
<stop offset="0.417" stop-color="#E7AA39"/>
<stop offset="0.69" stop-color="#F7FC97"/>
<stop offset="0.938" stop-color="#E7AA39"/>
</linearGradient>
<linearGradient id="paint80_linear_43_3" x1="800.061" y1="1156.4" x2="221.66" y2="1156.4" gradientUnits="userSpaceOnUse">
<stop stop-color="#FCC342"/>
<stop offset="0.186" stop-color="#9E5313"/>
<stop offset="0.417" stop-color="#E7AA39"/>
<stop offset="0.69" stop-color="#F7FC97"/>
<stop offset="0.938" stop-color="#E7AA39"/>
</linearGradient>
<linearGradient id="paint81_linear_43_3" x1="793.092" y1="1160.76" x2="214.777" y2="1160.76" gradientUnits="userSpaceOnUse">
<stop stop-color="#FCC342"/>
<stop offset="0.186" stop-color="#9E5313"/>
<stop offset="0.417" stop-color="#E7AA39"/>
<stop offset="0.69" stop-color="#F7FC97"/>
<stop offset="0.938" stop-color="#E7AA39"/>
</linearGradient>
<linearGradient id="paint82_linear_43_3" x1="786.206" y1="1165.12" x2="207.805" y2="1165.12" gradientUnits="userSpaceOnUse">
<stop stop-color="#FCC342"/>
<stop offset="0.186" stop-color="#9E5313"/>
<stop offset="0.417" stop-color="#E7AA39"/>
<stop offset="0.69" stop-color="#F7FC97"/>
<stop offset="0.938" stop-color="#E7AA39"/>
</linearGradient>
<linearGradient id="paint83_linear_43_3" x1="779.319" y1="1169.49" x2="200.918" y2="1169.49" gradientUnits="userSpaceOnUse">
<stop stop-color="#FCC342"/>
<stop offset="0.186" stop-color="#9E5313"/>
<stop offset="0.417" stop-color="#E7AA39"/>
<stop offset="0.69" stop-color="#F7FC97"/>
<stop offset="0.938" stop-color="#E7AA39"/>
</linearGradient>
<linearGradient id="paint84_linear_43_3" x1="772.343" y1="1173.85" x2="193.941" y2="1173.85" gradientUnits="userSpaceOnUse">
<stop stop-color="#FCC342"/>
<stop offset="0.186" stop-color="#9E5313"/>
<stop offset="0.417" stop-color="#E7AA39"/>
<stop offset="0.69" stop-color="#F7FC97"/>
<stop offset="0.938" stop-color="#E7AA39"/>
</linearGradient>
<linearGradient id="paint85_linear_43_3" x1="765.456" y1="1178.22" x2="187.055" y2="1178.22" gradientUnits="userSpaceOnUse">
<stop stop-color="#FCC342"/>
<stop offset="0.186" stop-color="#9E5313"/>
<stop offset="0.417" stop-color="#E7AA39"/>
<stop offset="0.69" stop-color="#F7FC97"/>
<stop offset="0.938" stop-color="#E7AA39"/>
</linearGradient>
<linearGradient id="paint86_linear_43_3" x1="758.487" y1="1182.58" x2="180.086" y2="1182.58" gradientUnits="userSpaceOnUse">
<stop stop-color="#FCC342"/>
<stop offset="0.186" stop-color="#9E5313"/>
<stop offset="0.417" stop-color="#E7AA39"/>
<stop offset="0.69" stop-color="#F7FC97"/>
<stop offset="0.938" stop-color="#E7AA39"/>
</linearGradient>
<linearGradient id="paint87_linear_43_3" x1="751.589" y1="1186.94" x2="173.188" y2="1186.94" gradientUnits="userSpaceOnUse">
<stop stop-color="#FCC342"/>
<stop offset="0.186" stop-color="#9E5313"/>
<stop offset="0.417" stop-color="#E7AA39"/>
<stop offset="0.69" stop-color="#F7FC97"/>
<stop offset="0.938" stop-color="#E7AA39"/>
</linearGradient>
<linearGradient id="paint88_linear_43_3" x1="744.619" y1="1191.37" x2="166.305" y2="1191.37" gradientUnits="userSpaceOnUse">
<stop stop-color="#FCC342"/>
<stop offset="0.186" stop-color="#9E5313"/>
<stop offset="0.417" stop-color="#E7AA39"/>
<stop offset="0.69" stop-color="#F7FC97"/>
<stop offset="0.938" stop-color="#E7AA39"/>
</linearGradient>
<linearGradient id="paint89_linear_43_3" x1="1041.76" y1="104.544" x2="1620.16" y2="104.544" gradientUnits="userSpaceOnUse">
<stop stop-color="#FCC342"/>
<stop offset="0.186" stop-color="#9E5313"/>
<stop offset="0.417" stop-color="#E7AA39"/>
<stop offset="0.69" stop-color="#F7FC97"/>
<stop offset="0.938" stop-color="#E7AA39"/>
</linearGradient>
<linearGradient id="paint90_linear_43_3" x1="1048.73" y1="100.179" x2="1627.05" y2="100.179" gradientUnits="userSpaceOnUse">
<stop stop-color="#FCC342"/>
<stop offset="0.186" stop-color="#9E5313"/>
<stop offset="0.417" stop-color="#E7AA39"/>
<stop offset="0.69" stop-color="#F7FC97"/>
<stop offset="0.938" stop-color="#E7AA39"/>
</linearGradient>
<linearGradient id="paint91_linear_43_3" x1="1055.62" y1="95.8167" x2="1634.02" y2="95.8167" gradientUnits="userSpaceOnUse">
<stop stop-color="#FCC342"/>
<stop offset="0.186" stop-color="#9E5313"/>
<stop offset="0.417" stop-color="#E7AA39"/>
<stop offset="0.69" stop-color="#F7FC97"/>
<stop offset="0.938" stop-color="#E7AA39"/>
</linearGradient>
<linearGradient id="paint92_linear_43_3" x1="1062.52" y1="91.4509" x2="1640.92" y2="91.4509" gradientUnits="userSpaceOnUse">
<stop stop-color="#FCC342"/>
<stop offset="0.186" stop-color="#9E5313"/>
<stop offset="0.417" stop-color="#E7AA39"/>
<stop offset="0.69" stop-color="#F7FC97"/>
<stop offset="0.938" stop-color="#E7AA39"/>
</linearGradient>
<linearGradient id="paint93_linear_43_3" x1="1069.49" y1="87.0884" x2="1647.89" y2="87.0884" gradientUnits="userSpaceOnUse">
<stop stop-color="#FCC342"/>
<stop offset="0.186" stop-color="#9E5313"/>
<stop offset="0.417" stop-color="#E7AA39"/>
<stop offset="0.69" stop-color="#F7FC97"/>
<stop offset="0.938" stop-color="#E7AA39"/>
</linearGradient>
<linearGradient id="paint94_linear_43_3" x1="1076.37" y1="82.7268" x2="1654.77" y2="82.7268" gradientUnits="userSpaceOnUse">
<stop stop-color="#FCC342"/>
<stop offset="0.186" stop-color="#9E5313"/>
<stop offset="0.417" stop-color="#E7AA39"/>
<stop offset="0.69" stop-color="#F7FC97"/>
<stop offset="0.938" stop-color="#E7AA39"/>
</linearGradient>
<linearGradient id="paint95_linear_43_3" x1="1083.36" y1="78.3619" x2="1661.67" y2="78.3619" gradientUnits="userSpaceOnUse">
<stop stop-color="#FCC342"/>
<stop offset="0.186" stop-color="#9E5313"/>
<stop offset="0.417" stop-color="#E7AA39"/>
<stop offset="0.69" stop-color="#F7FC97"/>
<stop offset="0.938" stop-color="#E7AA39"/>
</linearGradient>
<linearGradient id="paint96_linear_43_3" x1="1090.23" y1="73.9991" x2="1668.63" y2="73.9991" gradientUnits="userSpaceOnUse">
<stop stop-color="#FCC342"/>
<stop offset="0.186" stop-color="#9E5313"/>
<stop offset="0.417" stop-color="#E7AA39"/>
<stop offset="0.69" stop-color="#F7FC97"/>
<stop offset="0.938" stop-color="#E7AA39"/>
</linearGradient>
<linearGradient id="paint97_linear_43_3" x1="1097.21" y1="69.6353" x2="1675.53" y2="69.6353" gradientUnits="userSpaceOnUse">
<stop stop-color="#FCC342"/>
<stop offset="0.186" stop-color="#9E5313"/>
<stop offset="0.417" stop-color="#E7AA39"/>
<stop offset="0.69" stop-color="#F7FC97"/>
<stop offset="0.938" stop-color="#E7AA39"/>
</linearGradient>
<linearGradient id="paint98_linear_43_3" x1="1104.1" y1="65.2719" x2="1682.5" y2="65.2719" gradientUnits="userSpaceOnUse">
<stop stop-color="#FCC342"/>
<stop offset="0.186" stop-color="#9E5313"/>
<stop offset="0.417" stop-color="#E7AA39"/>
<stop offset="0.69" stop-color="#F7FC97"/>
<stop offset="0.938" stop-color="#E7AA39"/>
</linearGradient>
<linearGradient id="paint99_linear_43_3" x1="1110.99" y1="60.908" x2="1689.39" y2="60.908" gradientUnits="userSpaceOnUse">
<stop stop-color="#FCC342"/>
<stop offset="0.186" stop-color="#9E5313"/>
<stop offset="0.417" stop-color="#E7AA39"/>
<stop offset="0.69" stop-color="#F7FC97"/>
<stop offset="0.938" stop-color="#E7AA39"/>
</linearGradient>
<linearGradient id="paint100_linear_43_3" x1="1117.96" y1="56.5443" x2="1696.36" y2="56.5443" gradientUnits="userSpaceOnUse">
<stop stop-color="#FCC342"/>
<stop offset="0.186" stop-color="#9E5313"/>
<stop offset="0.417" stop-color="#E7AA39"/>
<stop offset="0.69" stop-color="#F7FC97"/>
<stop offset="0.938" stop-color="#E7AA39"/>
</linearGradient>
<linearGradient id="paint101_linear_43_3" x1="1124.76" y1="48.0585" x2="1703.16" y2="48.0585" gradientUnits="userSpaceOnUse">
<stop stop-color="#FCC342"/>
<stop offset="0.186" stop-color="#9E5313"/>
<stop offset="0.417" stop-color="#E7AA39"/>
<stop offset="0.69" stop-color="#F7FC97"/>
<stop offset="0.938" stop-color="#E7AA39"/>
</linearGradient>
<linearGradient id="paint102_linear_43_3" x1="1131.74" y1="43.6331" x2="1710.06" y2="43.6331" gradientUnits="userSpaceOnUse">
<stop stop-color="#FCC342"/>
<stop offset="0.186" stop-color="#9E5313"/>
<stop offset="0.417" stop-color="#E7AA39"/>
<stop offset="0.69" stop-color="#F7FC97"/>
<stop offset="0.938" stop-color="#E7AA39"/>
</linearGradient>
<linearGradient id="paint103_linear_43_3" x1="1138.62" y1="39.2715" x2="1717.02" y2="39.2715" gradientUnits="userSpaceOnUse">
<stop stop-color="#FCC342"/>
<stop offset="0.186" stop-color="#9E5313"/>
<stop offset="0.417" stop-color="#E7AA39"/>
<stop offset="0.69" stop-color="#F7FC97"/>
<stop offset="0.938" stop-color="#E7AA39"/>
</linearGradient>
<linearGradient id="paint104_linear_43_3" x1="1145.51" y1="34.907" x2="1723.91" y2="34.907" gradientUnits="userSpaceOnUse">
<stop stop-color="#FCC342"/>
<stop offset="0.186" stop-color="#9E5313"/>
<stop offset="0.417" stop-color="#E7AA39"/>
<stop offset="0.69" stop-color="#F7FC97"/>
<stop offset="0.938" stop-color="#E7AA39"/>
</linearGradient>
<linearGradient id="paint105_linear_43_3" x1="1152.49" y1="30.545" x2="1730.89" y2="30.545" gradientUnits="userSpaceOnUse">
<stop stop-color="#FCC342"/>
<stop offset="0.186" stop-color="#9E5313"/>
<stop offset="0.417" stop-color="#E7AA39"/>
<stop offset="0.69" stop-color="#F7FC97"/>
<stop offset="0.938" stop-color="#E7AA39"/>
</linearGradient>
<linearGradient id="paint106_linear_43_3" x1="1159.38" y1="26.1832" x2="1737.78" y2="26.1832" gradientUnits="userSpaceOnUse">
<stop stop-color="#FCC342"/>
<stop offset="0.186" stop-color="#9E5313"/>
<stop offset="0.417" stop-color="#E7AA39"/>
<stop offset="0.69" stop-color="#F7FC97"/>
<stop offset="0.938" stop-color="#E7AA39"/>
</linearGradient>
<linearGradient id="paint107_linear_43_3" x1="1166.36" y1="21.8175" x2="1744.67" y2="21.8175" gradientUnits="userSpaceOnUse">
<stop stop-color="#FCC342"/>
<stop offset="0.186" stop-color="#9E5313"/>
<stop offset="0.417" stop-color="#E7AA39"/>
<stop offset="0.69" stop-color="#F7FC97"/>
<stop offset="0.938" stop-color="#E7AA39"/>
</linearGradient>
<linearGradient id="paint108_linear_43_3" x1="1173.24" y1="17.455" x2="1751.64" y2="17.455" gradientUnits="userSpaceOnUse">
<stop stop-color="#FCC342"/>
<stop offset="0.186" stop-color="#9E5313"/>
<stop offset="0.417" stop-color="#E7AA39"/>
<stop offset="0.69" stop-color="#F7FC97"/>
<stop offset="0.938" stop-color="#E7AA39"/>
</linearGradient>
<linearGradient id="paint109_linear_43_3" x1="1180.21" y1="13.0911" x2="1758.53" y2="13.0911" gradientUnits="userSpaceOnUse">
<stop stop-color="#FCC342"/>
<stop offset="0.186" stop-color="#9E5313"/>
<stop offset="0.417" stop-color="#E7AA39"/>
<stop offset="0.69" stop-color="#F7FC97"/>
<stop offset="0.938" stop-color="#E7AA39"/>
</linearGradient>
<linearGradient id="paint110_linear_43_3" x1="1187.11" y1="8.72839" x2="1765.51" y2="8.72839" gradientUnits="userSpaceOnUse">
<stop stop-color="#FCC342"/>
<stop offset="0.186" stop-color="#9E5313"/>
<stop offset="0.417" stop-color="#E7AA39"/>
<stop offset="0.69" stop-color="#F7FC97"/>
<stop offset="0.938" stop-color="#E7AA39"/>
</linearGradient>
<linearGradient id="paint111_linear_43_3" x1="1193.99" y1="4.36353" x2="1772.39" y2="4.36353" gradientUnits="userSpaceOnUse">
<stop stop-color="#FCC342"/>
<stop offset="0.186" stop-color="#9E5313"/>
<stop offset="0.417" stop-color="#E7AA39"/>
<stop offset="0.69" stop-color="#F7FC97"/>
<stop offset="0.938" stop-color="#E7AA39"/>
</linearGradient>
<linearGradient id="paint112_linear_43_3" x1="1200.96" y1="0" x2="1779.36" y2="0" gradientUnits="userSpaceOnUse">
<stop stop-color="#FCC342"/>
<stop offset="0.186" stop-color="#9E5313"/>
<stop offset="0.417" stop-color="#E7AA39"/>
<stop offset="0.69" stop-color="#F7FC97"/>
<stop offset="0.938" stop-color="#E7AA39"/>
</linearGradient>
<linearGradient id="paint113_linear_43_3" x1="965.297" y1="157.695" x2="1543.7" y2="157.695" gradientUnits="userSpaceOnUse">
<stop stop-color="#FCC342"/>
<stop offset="0.186" stop-color="#9E5313"/>
<stop offset="0.417" stop-color="#E7AA39"/>
<stop offset="0.69" stop-color="#F7FC97"/>
<stop offset="0.938" stop-color="#E7AA39"/>
</linearGradient>
<linearGradient id="paint114_linear_43_3" x1="972.277" y1="153.33" x2="1550.68" y2="153.33" gradientUnits="userSpaceOnUse">
<stop stop-color="#FCC342"/>
<stop offset="0.186" stop-color="#9E5313"/>
<stop offset="0.417" stop-color="#E7AA39"/>
<stop offset="0.69" stop-color="#F7FC97"/>
<stop offset="0.938" stop-color="#E7AA39"/>
</linearGradient>
<linearGradient id="paint115_linear_43_3" x1="979.16" y1="148.967" x2="1557.56" y2="148.967" gradientUnits="userSpaceOnUse">
<stop stop-color="#FCC342"/>
<stop offset="0.186" stop-color="#9E5313"/>
<stop offset="0.417" stop-color="#E7AA39"/>
<stop offset="0.69" stop-color="#F7FC97"/>
<stop offset="0.938" stop-color="#E7AA39"/>
</linearGradient>
<linearGradient id="paint116_linear_43_3" x1="986.133" y1="144.602" x2="1564.45" y2="144.602" gradientUnits="userSpaceOnUse">
<stop stop-color="#FCC342"/>
<stop offset="0.186" stop-color="#9E5313"/>
<stop offset="0.417" stop-color="#E7AA39"/>
<stop offset="0.69" stop-color="#F7FC97"/>
<stop offset="0.938" stop-color="#E7AA39"/>
</linearGradient>
<linearGradient id="paint117_linear_43_3" x1="993.02" y1="140.239" x2="1571.42" y2="140.239" gradientUnits="userSpaceOnUse">
<stop stop-color="#FCC342"/>
<stop offset="0.186" stop-color="#9E5313"/>
<stop offset="0.417" stop-color="#E7AA39"/>
<stop offset="0.69" stop-color="#F7FC97"/>
<stop offset="0.938" stop-color="#E7AA39"/>
</linearGradient>
<linearGradient id="paint118_linear_43_3" x1="999.996" y1="135.875" x2="1578.31" y2="135.875" gradientUnits="userSpaceOnUse">
<stop stop-color="#FCC342"/>
<stop offset="0.186" stop-color="#9E5313"/>
<stop offset="0.417" stop-color="#E7AA39"/>
<stop offset="0.69" stop-color="#F7FC97"/>
<stop offset="0.938" stop-color="#E7AA39"/>
</linearGradient>
<linearGradient id="paint119_linear_43_3" x1="1006.89" y1="131.512" x2="1585.3" y2="131.512" gradientUnits="userSpaceOnUse">
<stop stop-color="#FCC342"/>
<stop offset="0.186" stop-color="#9E5313"/>
<stop offset="0.417" stop-color="#E7AA39"/>
<stop offset="0.69" stop-color="#F7FC97"/>
<stop offset="0.938" stop-color="#E7AA39"/>
</linearGradient>
<linearGradient id="paint120_linear_43_3" x1="1013.78" y1="127.149" x2="1592.18" y2="127.149" gradientUnits="userSpaceOnUse">
<stop stop-color="#FCC342"/>
<stop offset="0.186" stop-color="#9E5313"/>
<stop offset="0.417" stop-color="#E7AA39"/>
<stop offset="0.69" stop-color="#F7FC97"/>
<stop offset="0.938" stop-color="#E7AA39"/>
</linearGradient>
<linearGradient id="paint121_linear_43_3" x1="1020.75" y1="122.786" x2="1599.16" y2="122.786" gradientUnits="userSpaceOnUse">
<stop stop-color="#FCC342"/>
<stop offset="0.186" stop-color="#9E5313"/>
<stop offset="0.417" stop-color="#E7AA39"/>
<stop offset="0.69" stop-color="#F7FC97"/>
<stop offset="0.938" stop-color="#E7AA39"/>
</linearGradient>
<linearGradient id="paint122_linear_43_3" x1="1027.63" y1="118.423" x2="1606.03" y2="118.423" gradientUnits="userSpaceOnUse">
<stop stop-color="#FCC342"/>
<stop offset="0.186" stop-color="#9E5313"/>
<stop offset="0.417" stop-color="#E7AA39"/>
<stop offset="0.69" stop-color="#F7FC97"/>
<stop offset="0.938" stop-color="#E7AA39"/>
</linearGradient>
<linearGradient id="paint123_linear_43_3" x1="1034.61" y1="113.998" x2="1612.92" y2="113.998" gradientUnits="userSpaceOnUse">
<stop stop-color="#FCC342"/>
<stop offset="0.186" stop-color="#9E5313"/>
<stop offset="0.417" stop-color="#E7AA39"/>
<stop offset="0.69" stop-color="#F7FC97"/>
<stop offset="0.938" stop-color="#E7AA39"/>
</linearGradient>
<linearGradient id="paint124_linear_43_3" x1="1041.5" y1="109.635" x2="1619.9" y2="109.635" gradientUnits="userSpaceOnUse">
<stop stop-color="#FCC342"/>
<stop offset="0.186" stop-color="#9E5313"/>
<stop offset="0.417" stop-color="#E7AA39"/>
<stop offset="0.69" stop-color="#F7FC97"/>
<stop offset="0.938" stop-color="#E7AA39"/>
</linearGradient>
<radialGradient id="paint125_radial_43_3" cx="0" cy="0" r="1" gradientUnits="userSpaceOnUse" gradientTransform="translate(930.949 726.773) scale(26.505 18.4238)">
<stop stop-color="white"/>
<stop offset="1" stop-opacity="0"/>
</radialGradient>
<radialGradient id="paint126_radial_43_3" cx="0" cy="0" r="1" gradientUnits="userSpaceOnUse" gradientTransform="translate(926.325 729.682) scale(50.6559 35.2113)">
<stop stop-color="white"/>
<stop offset="1" stop-opacity="0"/>
</radialGradient>
<radialGradient id="paint127_radial_43_3" cx="0" cy="0" r="1" gradientUnits="userSpaceOnUse" gradientTransform="translate(925.809 725.621) scale(50.6559 35.2113)">
<stop stop-color="white"/>
<stop offset="1" stop-opacity="0"/>
</radialGradient>
</defs>
</svg>
