<svg class="svg-icon" style="width: 1em; height: 1em;vertical-align: middle;fill: currentColor;overflow: hidden;" viewBox="0 0 1024 1024" version="1.1" xmlns="http://www.w3.org/2000/svg"><path d="M868.7 126.6H157.3c-32.7 0-59.3 26.5-59.3 59.3 0 32.7 26.5 59.3 59.3 59.3h711.4c32.7 0 59.3-26.5 59.3-59.3 0-32.7-26.5-59.3-59.3-59.3z m0 652.2H157.3c-32.7 0-59.3 26.5-59.3 59.3 0 32.7 26.5 59.3 59.3 59.3h711.4c32.7 0 59.3-26.5 59.3-59.3s-26.5-59.3-59.3-59.3z m0-326.1H157.3c-32.7 0-59.3 26.5-59.3 59.3 0 32.7 26.5 59.3 59.3 59.3h711.4c32.7 0 59.3-26.5 59.3-59.3 0-32.7-26.5-59.3-59.3-59.3z"  /></svg>