<svg width="59" height="36" viewBox="0 0 59 36" fill="none" xmlns="http://www.w3.org/2000/svg">
<path d="M56.25 0.5C57.6307 0.5 58.75 1.61929 58.75 3C58.75 4.38071 57.6307 5.5 56.25 5.5V0.5ZM56.25 5.5H0V0.5H56.25V5.5Z" fill="#FEFEFE"/>
<path d="M45 15.5C46.3807 15.5 47.5 16.6193 47.5 18C47.5 19.3807 46.3807 20.5 45 20.5V15.5ZM45 20.5L0 20.5V15.5L45 15.5V20.5Z" fill="#FACD35"/>
<path d="M38.25 30.5C39.6307 30.5 40.75 31.6193 40.75 33C40.75 34.3807 39.6307 35.5 38.25 35.5V30.5ZM38.25 35.5L0 35.5V30.5L38.25 30.5V35.5Z" fill="#FEFEFE"/>
</svg>
