<svg width="51" height="50" viewBox="0 0 51 50" fill="none" xmlns="http://www.w3.org/2000/svg">
<mask id="mask0_43_316" style="mask-type:luminance" maskUnits="userSpaceOnUse" x="0" y="0" width="51" height="50">
<path d="M39.1545 3.16132C42.6542 1.22832 46.4362 0.175939 50.5 0C50.4141 4.44442 49.3947 8.38053 47.445 11.8051C45.1912 15.3949 42.5972 18.1876 39.6614 20.1782C37.6879 20.0996 35.9517 20.2363 34.4529 20.5885C31.8716 21.4978 29.6541 22.6381 27.8007 24.0094L26.7469 24.0618C26.7492 23.5219 26.7715 22.9797 26.8156 22.4315C28.4965 20.3634 29.7049 18.0869 30.4421 15.6065C30.8886 13.9481 31.0869 12.1899 31.0367 10.3321C32.9043 7.97527 35.6102 5.5864 39.1545 3.16132ZM27.0393 28.2129C26.9301 27.4825 26.8515 26.7417 26.8035 25.9906C27.3696 26.0315 27.9404 26.0945 28.516 26.1796C30.3455 27.4687 32.3245 28.4236 34.4529 29.0392C35.704 29.3702 37.0112 29.5609 38.3751 29.618C40.9965 31.4666 43.6625 34.3243 46.3731 38.1949C48.1687 41.3767 49.2136 44.791 49.5089 48.4426C45.6568 48.1742 42.2053 47.1912 39.1545 45.4934C35.6311 43.3301 32.8685 40.853 30.8678 38.0547C30.8266 36.8326 30.6847 35.7179 30.4421 34.7105C29.5345 32.1954 28.4004 30.0279 27.0393 28.2129ZM23.1139 25.9976L24.2531 25.9405C24.2503 26.4521 24.2299 26.965 24.1914 27.484C22.4849 29.5684 21.26 31.8622 20.5166 34.3656C20.0648 36.0473 19.867 37.8313 19.9234 39.7176C18.0577 42.0568 15.3657 44.4289 11.8455 46.8387C8.34529 48.7717 4.5633 49.8231 0.5 50C0.58588 45.5556 1.60484 41.6195 3.55502 38.1949C5.81716 34.5898 8.42327 31.7924 11.3724 29.7991C13.3161 29.872 15.0268 29.7341 16.5072 29.3841C19.0678 28.4807 21.2705 27.3513 23.1139 25.9976ZM23.5526 24.2693C23.9337 24.54 24.3051 24.831 24.6667 25.1462C24.4436 25.3353 24.2113 25.519 23.9699 25.6973C21.5102 25.8662 19.2388 26.5129 17.1557 27.6372C16.8539 27.8094 16.5578 27.9956 16.2667 28.1915C15.2208 28.1539 14.0728 28.0197 12.8222 27.7955C10.9616 27.275 9.29105 26.3908 7.81051 25.143C9.34196 23.8306 10.9923 22.9277 12.7619 22.4384C14.2795 22.0872 15.7137 21.9402 17.0642 21.9974C17.2939 22.1596 17.5233 22.3102 17.7527 22.4491C19.7609 23.391 21.6943 23.9996 23.5526 24.2693ZM22.3911 11.9202C22.9646 9.91848 23.9726 8.13976 25.415 6.58401C27.0523 8.26587 28.1516 10.0977 28.7133 12.0864C28.9878 13.2463 29.1395 14.3578 29.1683 15.4209C28.8656 15.7997 28.5968 16.1808 28.3605 16.5577C27.2232 18.9311 26.5691 21.1982 26.3983 23.359C26.1575 23.6548 25.9019 23.9447 25.6314 24.2285C25.2421 23.8395 24.8742 23.4164 24.5279 22.9593C24.2438 21.0316 23.6376 19.2279 22.7091 17.5484C22.4881 17.1705 22.2468 16.8001 21.9854 16.4407C21.9442 15.1239 22.0795 13.6171 22.3911 11.9202ZM27.5138 25.8161C27.1245 25.5428 26.7455 25.245 26.3769 24.9225C26.5909 24.7414 26.8137 24.5641 27.0445 24.3956C29.5257 24.2303 31.8162 23.5823 33.9153 22.4491C34.2241 22.2727 34.5286 22.0819 34.8261 21.8805C35.8592 21.9216 36.9911 22.0524 38.2219 22.2727C40.0822 22.7948 41.7524 23.6791 43.2327 24.9257C41.7017 26.2385 40.0523 27.141 38.2818 27.6303C36.765 27.9824 35.332 28.1299 33.9827 28.0727C33.7603 27.9158 33.5398 27.7718 33.3184 27.6372C31.3092 26.6953 29.3734 26.0867 27.5138 25.8161ZM24.6769 26.6726C24.9087 26.39 25.1539 26.1132 25.4123 25.8421C25.8134 26.2419 26.1909 26.6783 26.545 27.1512C26.8314 29.0703 27.4363 30.8654 28.3605 32.5398C28.575 32.9032 28.8071 33.2597 29.0568 33.6094C29.1019 34.9306 28.9663 36.443 28.653 38.1508C28.0792 40.1521 27.0709 41.9314 25.6291 43.4847C23.9922 41.8042 22.893 39.9706 22.3312 37.9837C22.0597 36.8413 21.9093 35.7476 21.8772 34.6994C22.1898 34.3073 22.4671 33.917 22.7091 33.5286C23.8567 31.136 24.5121 28.8498 24.6769 26.6726ZM23.9644 21.8215C24.0708 22.5398 24.148 23.2691 24.196 24.0094C23.6278 23.968 23.0559 23.9058 22.4789 23.82C20.6396 22.5174 18.6486 21.5564 16.5072 20.9325C15.2561 20.6057 13.9503 20.4121 12.5878 20.356C9.97795 18.5071 7.32448 15.6568 4.62737 11.8051C2.83131 8.62331 1.78496 5.20899 1.48972 1.55792C5.34273 1.82592 8.79465 2.80945 11.8455 4.50849C15.3443 6.65224 18.0925 9.11306 20.0895 11.8858C20.1295 13.123 20.2715 14.2473 20.5166 15.2626C21.4342 17.808 22.5835 19.9943 23.9644 21.8215Z" fill="white"/>
</mask>
<g mask="url(#mask0_43_316)">
<path d="M0.503601 49.999H50.4999V0.00268555H0.503601V49.999Z" fill="url(#paint0_linear_43_316)"/>
</g>
<defs>
<linearGradient id="paint0_linear_43_316" x1="0.503601" y1="0.00268555" x2="50.4999" y2="0.00268555" gradientUnits="userSpaceOnUse">
<stop stop-color="#CBAB18"/>
<stop offset="0.23" stop-color="#D4A61C"/>
<stop offset="0.6" stop-color="#F3E58B"/>
<stop offset="1" stop-color="#CBAB1F"/>
</linearGradient>
</defs>
</svg>
