<svg width="36" height="36" viewBox="0 0 36 36" fill="none" xmlns="http://www.w3.org/2000/svg">
<path d="M27.5649 33.8279C27.4579 33.7311 27.3187 33.6771 27.174 33.6771H23.8066V34.8385H26.9497L28.0611 35.8491V35.8488C28.1681 35.946 28.3073 35.9996 28.4516 35.9996H33.6775V34.8385H28.6764L27.5649 33.8279Z" fill="#FACD35"/>
<path d="M34.8379 34.8386H35.9993V36H34.8379V34.8386Z" fill="#FACD35"/>
<path d="M23.8066 31.3553H29.0325V32.5168H23.8066V31.3553Z" fill="#FACD35"/>
<path d="M30.1934 31.3553H31.3548V32.5168H30.1934V31.3553Z" fill="#FACD35"/>
<path d="M32.5156 31.3553H35.9995V32.5168H32.5156V31.3553Z" fill="#FACD35"/>
<path d="M30.9439 28.0408L29.9526 29.0321H26.709V30.1936H30.1928V30.1932C30.347 30.1932 30.4945 30.1319 30.6033 30.0231L31.5946 29.0321H35.9993V27.8707H31.3543C31.2001 27.8707 31.0527 27.932 30.9439 28.0408V28.0408Z" fill="#FACD35"/>
<path d="M8.43491 2.17202C8.54188 2.26888 8.68104 2.32252 8.82542 2.32283H12.1931V1.16141H9.05007L7.93864 0.15081C7.83166 0.0539477 7.69251 0 7.54813 0H2.32227V1.16142H7.3234L8.43491 2.17202Z" fill="#FACD35"/>
<path d="M0 0H1.16142V1.16142H0V0Z" fill="#FACD35"/>
<path d="M6.9668 3.48401H12.1927V4.64543H6.9668V3.48401Z" fill="#FACD35"/>
<path d="M4.64648 3.48401H5.8079V4.64543H4.64648V3.48401Z" fill="#FACD35"/>
<path d="M0 3.48401H3.48386V4.64543H0V3.48401Z" fill="#FACD35"/>
<path d="M5.0557 7.95904L6.047 6.96774H9.29058V5.80664H5.80672C5.65255 5.80664 5.5048 5.86764 5.39599 5.97676L4.405 6.96774H0V8.12916H4.64528C4.79914 8.12916 4.94689 8.06786 5.05571 7.95904H5.0557Z" fill="#FACD35"/>
<path d="M31.356 18C31.3624 15.8894 30.8631 13.8074 29.8994 11.9294L28.8652 12.4579C29.7449 14.1726 30.2008 16.0729 30.1946 18.0001C30.1921 22.0538 28.1767 25.8418 24.8158 28.1084C21.4551 30.3751 17.188 30.8245 13.4284 29.3078L12.9922 30.384H12.9925C15.7064 31.4795 18.7051 31.6536 21.5275 30.8796C24.35 30.1054 26.8404 28.4259 28.6158 26.0992C30.3915 23.7727 31.354 20.9273 31.3554 18.0004L31.356 18Z" fill="#FACD35"/>
<path d="M18.0013 5.80669C18.8553 5.80607 19.7067 5.89527 20.5423 6.07183L20.7833 4.9356C17.6972 4.28118 14.4794 4.73973 11.6989 6.2297C8.91815 7.71967 6.75446 10.1451 5.59029 13.0771C4.42582 16.0089 4.33605 19.258 5.3368 22.2493L6.43811 21.8796C5.19367 18.1591 5.81373 14.0671 8.10463 10.883C10.3958 7.69826 14.0784 5.80951 18.0011 5.80677L18.0013 5.80669Z" fill="#FACD35"/>
<path d="M27.2905 6.968C27.2905 7.93019 26.5104 8.70993 25.5486 8.70993C24.5864 8.70993 23.8066 7.93015 23.8066 6.968C23.8066 6.00613 24.5864 5.22607 25.5486 5.22607C26.5104 5.22607 27.2905 6.00616 27.2905 6.968Z" fill="#FACD35"/>
<path d="M30.1926 8.12941C30.1926 6.89752 29.7034 5.71586 28.8319 4.84478C27.9608 3.97362 26.7795 3.48413 25.5476 3.48413C24.3154 3.48413 23.1341 3.97364 22.263 4.84478C21.3918 5.71594 20.9023 6.89752 20.9023 8.12941C20.9023 9.36129 21.3919 10.5429 22.263 11.414C23.1342 12.2852 24.3154 12.7744 25.5476 12.7744C26.7789 12.7731 27.9596 12.2833 28.8304 11.4125C29.7013 10.5418 30.1914 9.36097 30.1926 8.12941ZM22.6795 10.1027C22.1964 9.40204 21.9862 8.54866 22.0892 7.70395C22.1918 6.85915 22.6004 6.08121 23.2377 5.51694C23.8746 4.95264 24.6964 4.64092 25.5477 4.64092C26.3986 4.64092 27.2203 4.95265 27.8573 5.51694C28.4946 6.08124 28.9031 6.85915 29.0059 7.70395C29.1089 8.54874 28.8989 9.40209 28.4155 10.1027C28.3352 9.70948 28.1213 9.35606 27.8101 9.10226C27.4993 8.84877 27.1104 8.70992 26.7088 8.70992H24.3863C23.9848 8.70992 23.5958 8.84877 23.285 9.10226C22.9739 9.35606 22.7602 9.70948 22.6796 10.1027H22.6795Z" fill="#FACD35"/>
<path d="M17.8836 24.3207L17.9998 24.3872L18.1159 24.321C21.1952 22.5646 23.2008 19.7269 23.5882 16.578L23.8064 14.8066L21.4812 13.9223C20.5708 13.5802 19.7264 13.0842 18.9846 12.4553L17.9997 11.613L17.0152 12.4553C16.2734 13.0843 15.4289 13.5802 14.5186 13.9223L12.1934 14.8066L12.4113 16.578C12.7987 19.7266 14.8043 22.5646 17.8835 24.3207L17.8836 24.3207ZM17.9998 15.6773C18.5141 15.6758 19.0027 15.9023 19.334 16.2959C19.6651 16.6895 19.8049 17.2093 19.7154 17.716C19.6262 18.2224 19.3169 18.6631 18.8709 18.9197V20.9032H17.1289V18.9197C16.683 18.6632 16.3737 18.2224 16.2841 17.716C16.195 17.2093 16.3347 16.6895 16.6658 16.2959C16.9968 15.9023 17.4854 15.6758 17.9997 15.6773H17.9998Z" fill="#FACD35"/>
<path d="M10.4507 25.5487C10.4507 26.5106 9.67087 27.2906 8.70873 27.2906C7.74686 27.2906 6.9668 26.5105 6.9668 25.5487C6.9668 24.5865 7.74689 23.8068 8.70873 23.8068C9.67091 23.8068 10.4507 24.5865 10.4507 25.5487Z" fill="#FACD35"/>
<path d="M8.70941 22.0647C7.47753 22.0647 6.29587 22.5539 5.42479 23.425C4.55363 24.2962 4.06445 25.4778 4.06445 26.7097C4.06445 27.9415 4.55366 29.1232 5.42479 29.9943C6.29595 30.8654 7.47753 31.3549 8.70941 31.3549C9.9413 31.3549 11.123 30.8654 11.994 29.9943C12.8652 29.1231 13.3547 27.9415 13.3547 26.7097C13.3532 25.4781 12.8633 24.2974 11.9926 23.4265C11.1217 22.5557 9.94098 22.0659 8.70941 22.0647ZM11.5775 28.6834V28.6831C11.4969 28.2898 11.2833 27.9367 10.9722 27.6829C10.6613 27.4291 10.2721 27.2906 9.87085 27.2906H7.54833C7.14679 27.2906 6.75783 27.4291 6.4467 27.6829C6.1359 27.9367 5.92194 28.2898 5.84133 28.6831C5.35826 27.9827 5.1483 27.1293 5.25098 26.2843C5.35397 25.4395 5.76256 24.6616 6.39953 24.0973C7.03678 23.533 7.85858 23.2216 8.70949 23.2216C9.56072 23.2216 10.3821 23.533 11.0195 24.0973C11.6567 24.6616 12.065 25.4395 12.168 26.2843C12.2707 27.1294 12.0607 27.9827 11.5777 28.6831L11.5775 28.6834Z" fill="#FACD35"/>
</svg>
