<svg width="36" height="36" viewBox="0 0 36 36" fill="none" xmlns="http://www.w3.org/2000/svg">
<path d="M36.0002 17.9998C36.0002 13.2261 34.1037 8.64791 30.7283 5.27217C27.3526 1.89644 22.7739 0 17.9998 0C13.2261 0 8.64791 1.89644 5.27217 5.27217C1.89644 8.64791 0 13.2266 0 17.9998C0.00551739 22.772 1.90381 27.3471 5.27829 30.722C8.65277 34.097 13.228 35.9944 17.9997 36C22.7719 35.9945 27.3469 34.0965 30.7219 30.722C34.0968 27.3475 35.9943 22.7723 35.9998 17.9998H36.0002ZM1.1615 17.9998C1.1615 16.772 2.76705 15.5431 5.4583 14.5855V14.5858C5.1478 16.8479 5.1478 19.1419 5.4583 21.4044C2.79036 20.4492 1.1615 19.2192 1.1615 17.9998V17.9998ZM6.38737 17.9998C6.38737 16.7235 6.48914 15.449 6.69114 14.1886C7.35873 13.994 8.07878 13.8165 8.84228 13.6556L10.2563 22.6097C9.05227 22.4107 7.86119 22.1407 6.68933 21.801C6.48856 20.544 6.38741 19.2728 6.38741 17.9999L6.38737 17.9998ZM27.206 12.4803C27.1536 12.3881 27.0766 12.3124 26.9834 12.2615L23.8401 10.5851C23.2086 6.50782 22.1061 3.39668 20.7328 1.63654C24.6811 3.02387 27.8521 7.34673 29.0717 12.9196C28.4826 12.7602 27.8607 12.614 27.2057 12.481L27.206 12.4803ZM18 34.8385C16.2314 34.8385 14.4511 31.426 13.504 26.3858L17.6518 29.4964C17.858 29.6512 18.1419 29.6512 18.3485 29.4964L22.4954 26.3858C21.5486 31.4265 19.7683 34.8385 18 34.8385H18ZM18 28.3063L11.5689 23.4825L9.92907 13.0909L18.0004 8.78649L26.0717 13.0909L24.4309 23.4841L18 28.3063ZM18 1.16071C19.7999 1.16071 21.6169 4.69794 22.5494 9.89667L18.2731 7.61589C18.1024 7.52485 17.8974 7.52485 17.7266 7.61589L13.4501 9.89667C14.3828 4.6981 16.2002 1.16071 18 1.16071H18ZM12.1599 10.5848L9.01679 12.2612C8.92392 12.3121 8.84698 12.3878 8.79457 12.48C8.14076 12.6137 7.51701 12.7599 6.9285 12.9183C8.14783 7.34399 11.3163 3.02262 15.2674 1.63529C13.8936 3.39653 12.7908 6.50712 12.1596 10.5847L12.1599 10.5848ZM10.4458 23.8163L10.4587 23.896V23.8957C10.482 24.0449 10.5626 24.1789 10.6833 24.2696L12.1531 25.3728C12.7823 29.471 13.8886 32.596 15.267 34.3638C11.3188 32.9761 8.14723 28.653 6.92813 23.0799C8.08681 23.3871 9.26133 23.6329 10.4461 23.8162L10.4458 23.8163ZM23.8467 25.3734L25.3159 24.2702C25.4367 24.1798 25.5176 24.0455 25.5412 23.8963L25.5535 23.8163C26.7385 23.6327 27.9127 23.3865 29.0714 23.0788C27.852 28.6531 24.6839 32.9745 20.7325 34.3626C22.1109 32.5953 23.2171 29.4697 23.8464 25.374L23.8467 25.3734ZM25.7444 22.6108L27.1584 13.6567C27.9214 13.8176 28.642 13.9951 29.3068 14.1897C29.7108 16.7111 29.7108 19.281 29.3068 21.8024C28.1362 22.1408 26.9466 22.4103 25.7445 22.6089L25.7444 22.6108ZM30.5424 14.5849C33.2337 15.5422 34.8392 16.771 34.8392 17.999C34.8392 19.2269 33.21 20.4481 30.5424 21.4032V21.4035C30.8529 19.1411 30.8529 16.8471 30.5424 14.5849V14.5849ZM34.654 15.5054L34.6537 15.5051C33.3703 14.4927 31.9012 13.7405 30.3294 13.2911C29.4392 8.66573 27.2688 4.77641 24.3902 2.42235C27.0842 3.53252 29.445 5.32083 31.2434 7.61322C33.0414 9.9057 34.216 12.6242 34.6528 15.5049L34.654 15.5054ZM11.6092 2.42304C8.73069 4.77648 6.5615 8.66564 5.67134 13.291C4.09953 13.741 2.63067 14.4928 1.34668 15.505C1.78347 12.6243 2.95805 9.90585 4.7564 7.61337C6.55444 5.32122 8.91525 3.53299 11.6092 2.42304ZM1.34551 20.4842C2.62887 21.5003 4.09867 22.2553 5.67205 22.7065C6.56158 27.3318 8.7314 31.2204 11.6093 33.5744C8.91408 32.4636 6.55271 30.6745 4.75404 28.3805C2.95569 26.0869 1.7814 23.3665 1.34551 20.4842V20.4842ZM24.3903 33.5744C27.2688 31.2204 29.4393 27.3318 30.3282 22.7073C31.9012 22.2561 33.371 21.5011 34.6538 20.485C34.2182 23.3672 33.0442 26.0873 31.2456 28.3806C29.4469 30.6745 27.0855 32.4637 24.3903 33.5743V33.5744Z" fill="#FACD35"/>
<path d="M21.4843 15.2032V13.9351C21.4843 12.6904 20.8204 11.5403 19.7423 10.9181C18.6646 10.2959 17.3365 10.2959 16.2585 10.9181C15.1808 11.5403 14.5165 12.6904 14.5165 13.9351V15.2038C14.1785 15.3234 13.8851 15.5447 13.6773 15.8374C13.4695 16.1298 13.357 16.4796 13.3555 16.8385V22.6449C13.3555 23.1068 13.5391 23.55 13.8655 23.8765C14.1923 24.2032 14.6355 24.3868 15.0974 24.3868H20.9038C21.3657 24.3868 21.8089 24.2032 22.1354 23.8765C22.4621 23.55 22.6457 23.1068 22.6457 22.6449V16.8385C22.6442 16.4796 22.532 16.1295 22.3239 15.8371C22.1161 15.5444 21.823 15.3231 21.4843 15.2032L21.4843 15.2032ZM18.0004 11.6126C18.6165 11.6126 19.2072 11.8572 19.6428 12.2928C20.0783 12.7284 20.3232 13.319 20.3232 13.9351V15.0966H15.678V13.9351C15.678 13.319 15.9226 12.7284 16.3581 12.2928C16.7937 11.8572 17.3847 11.6126 18.0005 11.6126H18.0004ZM21.4843 22.6446C21.4843 22.7984 21.4233 22.9462 21.3142 23.055C21.2053 23.1641 21.0576 23.2251 20.9037 23.2251H15.0973C14.7767 23.2251 14.5165 22.9652 14.5165 22.6446V16.8382C14.5165 16.5176 14.7767 16.2573 15.0973 16.2573H20.9037C21.0576 16.2573 21.2053 16.3186 21.3142 16.4275C21.4233 16.5363 21.4843 16.684 21.4843 16.8382V22.6446Z" fill="#FACD35"/>
<path d="M18.5819 19.9035V18.5809H17.4205V19.9035C17.1232 20.0752 16.9172 20.3694 16.8574 20.7075C16.798 21.0456 16.8909 21.3926 17.1115 21.6556C17.3322 21.9186 17.6578 22.0706 18.0011 22.0706C18.3444 22.0706 18.6702 21.9186 18.8909 21.6556C19.1113 21.3926 19.2045 21.0456 19.1447 20.7075C19.0852 20.3694 18.8793 20.0752 18.5819 19.9035Z" fill="#FACD35"/>
</svg>
