<svg width="789" height="435" viewBox="0 0 789 435" fill="none" xmlns="http://www.w3.org/2000/svg">
<g filter="url(#filter0_i_5_3)">
<path d="M588.54 168.468C585.447 166.611 584.276 162.695 585.803 159.427C604.332 119.763 610.167 102.215 609.844 61.6944C609.816 58.1403 612.398 55.07 615.917 54.5695L766.248 33.1881C768.693 32.8405 771.196 33.7598 772.256 35.9894C788.575 70.3205 752.544 222.599 723.952 245.859C722.122 247.347 719.593 247.169 717.571 245.955L588.54 168.468Z" fill="#2968C7"/>
</g>
<g filter="url(#filter1_i_5_3)">
<path d="M200.343 168.468C203.436 166.611 204.607 162.695 203.08 159.427C184.551 119.763 178.716 102.215 179.039 61.6944C179.068 58.1403 176.485 55.07 172.967 54.5695L22.6349 33.1881C20.1908 32.8405 17.6868 33.7598 16.627 35.9894C0.30821 70.3205 36.3398 222.599 64.9317 245.859C66.761 247.347 69.2906 247.169 71.3121 245.955L200.343 168.468Z" fill="#AA2ACA"/>
</g>
<g filter="url(#filter2_i_5_3)">
<path d="M473.762 266.502C472.463 263.137 473.939 259.335 477.135 257.663C516.843 236.892 539.444 217.367 564.805 184.255C566.967 181.434 570.885 180.606 573.969 182.373L705.718 257.864C707.86 259.091 709.269 261.356 708.716 263.762C700.044 301.543 570.418 409.301 533.056 410.721C530.7 410.811 528.81 409.115 527.961 406.915L473.762 266.502Z" fill="#FACD35"/>
</g>
<g filter="url(#filter3_i_5_3)">
<path d="M327.011 268.68C328.176 265.266 331.748 263.299 335.272 264.069C379.052 273.636 408.915 273.176 449.617 264.071C453.086 263.295 456.622 265.176 457.852 268.511L510.4 410.973C511.254 413.289 510.88 415.929 508.912 417.42C478.007 440.819 309.442 440.219 279.885 417.322C278.021 415.878 277.661 413.364 278.422 411.132L327.011 268.68Z" fill="#F89234"/>
</g>
<g filter="url(#filter4_i_5_3)">
<path d="M311.964 265.097C313.263 261.732 311.787 257.93 308.59 256.258C268.882 235.487 246.281 215.962 220.92 182.851C218.759 180.029 214.84 179.201 211.756 180.968L80.0071 256.459C77.8652 257.687 76.4566 259.951 77.0089 262.357C85.6817 300.138 215.307 407.897 252.669 409.317C255.025 409.406 256.915 407.71 257.764 405.51L311.964 265.097Z" fill="#DB582E"/>
</g>
<path d="M330.767 99.0001L320.778 64.091H328.841L334.619 88.3467H334.909L341.284 64.091H348.188L354.545 88.3978H354.852L360.631 64.091H368.693L358.705 99.0001H351.511L344.864 76.1763H344.591L337.96 99.0001H330.767ZM372.643 99.0001V64.091H380.024V78.4944H395.007V64.091H402.371V99.0001H395.007V84.5797H380.024V99.0001H372.643ZM414.473 99.0001H406.564L418.615 64.091H428.126L440.161 99.0001H432.251L423.507 72.0683H423.234L414.473 99.0001ZM413.979 85.2785H432.661V91.0399H413.979V85.2785ZM438.767 70.1763V64.091H467.438V70.1763H456.75V99.0001H449.455V70.1763H438.767ZM300.462 157L290.474 122.091H298.536L304.315 146.347H304.604L310.979 122.091H317.883L324.241 146.398H324.548L330.326 122.091H338.388L328.4 157H321.207L314.559 134.176H314.286L307.656 157H300.462ZM342.339 157V122.091H365.862V128.176H349.719V136.494H364.651V142.58H349.719V150.915H365.93V157H342.339ZM382.839 157V122.091H390.219V136.494H405.202V122.091H412.566V157H405.202V142.58H390.219V157H382.839ZM424.668 157H416.759L428.81 122.091H438.322L450.356 157H442.447L433.702 130.068H433.43L424.668 157ZM424.174 143.279H442.856V149.04H424.174V143.279ZM483.718 134.313H476.252C476.116 133.347 475.837 132.489 475.417 131.739C474.996 130.977 474.457 130.33 473.798 129.796C473.138 129.261 472.377 128.852 471.513 128.568C470.661 128.284 469.735 128.142 468.735 128.142C466.928 128.142 465.354 128.591 464.013 129.489C462.673 130.375 461.633 131.671 460.894 133.375C460.156 135.068 459.786 137.125 459.786 139.546C459.786 142.034 460.156 144.125 460.894 145.818C461.644 147.511 462.69 148.79 464.031 149.654C465.371 150.517 466.923 150.949 468.684 150.949C469.673 150.949 470.587 150.818 471.428 150.557C472.281 150.296 473.036 149.915 473.695 149.415C474.354 148.904 474.9 148.284 475.332 147.557C475.775 146.83 476.082 146 476.252 145.068L483.718 145.102C483.525 146.705 483.042 148.25 482.269 149.739C481.508 151.216 480.479 152.54 479.184 153.71C477.9 154.869 476.366 155.79 474.582 156.472C472.809 157.142 470.803 157.477 468.565 157.477C465.451 157.477 462.667 156.773 460.212 155.364C457.769 153.955 455.837 151.915 454.417 149.244C453.008 146.574 452.303 143.341 452.303 139.546C452.303 135.739 453.019 132.5 454.451 129.83C455.883 127.159 457.826 125.125 460.281 123.727C462.735 122.318 465.496 121.614 468.565 121.614C470.587 121.614 472.462 121.898 474.19 122.466C475.928 123.034 477.468 123.864 478.809 124.955C480.15 126.034 481.241 127.358 482.082 128.926C482.934 130.494 483.479 132.29 483.718 134.313ZM496.391 122.091V157H489.011V122.091H496.391Z" fill="#FEFEFE"/>
<defs>
<filter id="filter0_i_5_3" x="585.136" y="33.1167" width="191.199" height="213.804" filterUnits="userSpaceOnUse" color-interpolation-filters="sRGB">
<feFlood flood-opacity="0" result="BackgroundImageFix"/>
<feBlend mode="normal" in="SourceGraphic" in2="BackgroundImageFix" result="shape"/>
<feColorMatrix in="SourceAlpha" type="matrix" values="0 0 0 0 0 0 0 0 0 0 0 0 0 0 0 0 0 0 127 0" result="hardAlpha"/>
<feMorphology radius="28.0927" operator="erode" in="SourceAlpha" result="effect1_innerShadow_5_3"/>
<feOffset/>
<feGaussianBlur stdDeviation="42.1391"/>
<feComposite in2="hardAlpha" operator="arithmetic" k2="-1" k3="1"/>
<feColorMatrix type="matrix" values="0 0 0 0 0 0 0 0 0 0 0 0 0 0 0 0 0 0 0.25 0"/>
<feBlend mode="normal" in2="shape" result="effect1_innerShadow_5_3"/>
</filter>
<filter id="filter1_i_5_3" x="12.5483" y="33.1167" width="191.199" height="213.804" filterUnits="userSpaceOnUse" color-interpolation-filters="sRGB">
<feFlood flood-opacity="0" result="BackgroundImageFix"/>
<feBlend mode="normal" in="SourceGraphic" in2="BackgroundImageFix" result="shape"/>
<feColorMatrix in="SourceAlpha" type="matrix" values="0 0 0 0 0 0 0 0 0 0 0 0 0 0 0 0 0 0 127 0" result="hardAlpha"/>
<feMorphology radius="28.0927" operator="erode" in="SourceAlpha" result="effect1_innerShadow_5_3"/>
<feOffset/>
<feGaussianBlur stdDeviation="42.1391"/>
<feComposite in2="hardAlpha" operator="arithmetic" k2="-1" k3="1"/>
<feColorMatrix type="matrix" values="0 0 0 0 0 0 0 0 0 0 0 0 0 0 0 0 0 0 0.25 0"/>
<feBlend mode="normal" in2="shape" result="effect1_innerShadow_5_3"/>
</filter>
<filter id="filter2_i_5_3" x="473.291" y="181.445" width="235.546" height="229.28" filterUnits="userSpaceOnUse" color-interpolation-filters="sRGB">
<feFlood flood-opacity="0" result="BackgroundImageFix"/>
<feBlend mode="normal" in="SourceGraphic" in2="BackgroundImageFix" result="shape"/>
<feColorMatrix in="SourceAlpha" type="matrix" values="0 0 0 0 0 0 0 0 0 0 0 0 0 0 0 0 0 0 127 0" result="hardAlpha"/>
<feMorphology radius="28.0927" operator="erode" in="SourceAlpha" result="effect1_innerShadow_5_3"/>
<feOffset/>
<feGaussianBlur stdDeviation="42.1391"/>
<feComposite in2="hardAlpha" operator="arithmetic" k2="-1" k3="1"/>
<feColorMatrix type="matrix" values="0 0 0 0 0 0 0 0 0 0 0 0 0 0 0 0 0 0 0.25 0"/>
<feBlend mode="normal" in2="shape" result="effect1_innerShadow_5_3"/>
</filter>
<filter id="filter3_i_5_3" x="278.048" y="263.897" width="232.783" height="170.836" filterUnits="userSpaceOnUse" color-interpolation-filters="sRGB">
<feFlood flood-opacity="0" result="BackgroundImageFix"/>
<feBlend mode="normal" in="SourceGraphic" in2="BackgroundImageFix" result="shape"/>
<feColorMatrix in="SourceAlpha" type="matrix" values="0 0 0 0 0 0 0 0 0 0 0 0 0 0 0 0 0 0 127 0" result="hardAlpha"/>
<feMorphology radius="28.0927" operator="erode" in="SourceAlpha" result="effect1_innerShadow_5_3"/>
<feOffset/>
<feGaussianBlur stdDeviation="42.1391"/>
<feComposite in2="hardAlpha" operator="arithmetic" k2="-1" k3="1"/>
<feColorMatrix type="matrix" values="0 0 0 0 0 0 0 0 0 0 0 0 0 0 0 0 0 0 0.25 0"/>
<feBlend mode="normal" in2="shape" result="effect1_innerShadow_5_3"/>
</filter>
<filter id="filter4_i_5_3" x="76.8887" y="180.04" width="235.546" height="229.28" filterUnits="userSpaceOnUse" color-interpolation-filters="sRGB">
<feFlood flood-opacity="0" result="BackgroundImageFix"/>
<feBlend mode="normal" in="SourceGraphic" in2="BackgroundImageFix" result="shape"/>
<feColorMatrix in="SourceAlpha" type="matrix" values="0 0 0 0 0 0 0 0 0 0 0 0 0 0 0 0 0 0 127 0" result="hardAlpha"/>
<feMorphology radius="28.0927" operator="erode" in="SourceAlpha" result="effect1_innerShadow_5_3"/>
<feOffset/>
<feGaussianBlur stdDeviation="42.1391"/>
<feComposite in2="hardAlpha" operator="arithmetic" k2="-1" k3="1"/>
<feColorMatrix type="matrix" values="0 0 0 0 0 0 0 0 0 0 0 0 0 0 0 0 0 0 0.25 0"/>
<feBlend mode="normal" in2="shape" result="effect1_innerShadow_5_3"/>
</filter>
</defs>
</svg>
